<svg width="15" height="13" viewBox="0 0 15 13" fill="none" xmlns="http://www.w3.org/2000/svg">
<path fill-rule="evenodd" clip-rule="evenodd" d="M0.750445 6.50009C0.750445 6.72387 0.839339 6.93848 0.997573 7.09671C1.15581 7.25494 1.37042 7.34384 1.5942 7.34384H11.3699L7.74682 10.9652C7.66837 11.0437 7.60614 11.1368 7.56369 11.2393C7.52123 11.3418 7.49938 11.4516 7.49938 11.5626C7.49938 11.6735 7.52123 11.7834 7.56369 11.8859C7.60614 11.9884 7.66837 12.0815 7.74682 12.16C7.82527 12.2384 7.9184 12.3006 8.0209 12.3431C8.12339 12.3856 8.23325 12.4074 8.34419 12.4074C8.45514 12.4074 8.56499 12.3856 8.66749 12.3431C8.76999 12.3006 8.86312 12.2384 8.94157 12.16L14.0041 7.09746C14.0826 7.01909 14.145 6.92598 14.1875 6.82347C14.2301 6.72096 14.252 6.61107 14.252 6.50009C14.252 6.38911 14.2301 6.27921 14.1875 6.17671C14.145 6.0742 14.0826 5.98109 14.0041 5.90271L8.94157 0.840214C8.78314 0.681781 8.56825 0.592773 8.34419 0.592773C8.12014 0.592773 7.90525 0.681781 7.74682 0.840214C7.58839 0.998648 7.49938 1.21353 7.49938 1.43759C7.49938 1.66165 7.58839 1.87653 7.74682 2.03496L11.3699 5.65634H1.5942C1.37042 5.65634 1.15581 5.74523 0.997573 5.90347C0.839339 6.0617 0.750445 6.27631 0.750445 6.50009Z" fill="#0B5FFF"/>
</svg>
