<svg width="511" height="314" viewBox="0 0 511 314" fill="none" xmlns="http://www.w3.org/2000/svg">
<g clip-path="url(#clip0_240_1287)">
<path d="M93.467 39.0776H61.7838C56.6354 39.0776 52.4619 34.9044 52.4619 29.7557V29.0014C52.4619 23.8527 56.6354 19.6795 61.7838 19.6795H93.467V39.0776Z" fill="#81B8FF"/>
<path d="M93.4658 39.0776H134.47V19.6795H93.4658V39.0776Z" fill="#73B0FF"/>
<path d="M134.472 39.0776H175.477V19.6795H134.472V39.0776Z" fill="#59A1FF"/>
<path d="M216.313 39.0776H175.477V19.6795H216.481H216.313V39.0776Z" fill="#3997F1"/>
<path d="M216.312 39.0776H257.317V19.6795H216.312V39.0776Z" fill="#238BEF"/>
<path d="M298.043 39.0776H257.178V19.6795H298.182H298.043V39.0776Z" fill="#2065FF"/>
<path d="M298.044 39.0776H338.909V19.6795H298.044V39.0776Z" fill="#0B5FFF"/>
<path d="M368.207 39.0776H336.662V19.6795H368.207C373.355 19.6795 377.528 23.8527 377.528 29.0014V29.7557C377.528 34.9044 373.355 39.0776 368.207 39.0776Z" fill="#0053F0"/>
<path d="M398.736 39.0776H367.191V19.6795H398.736C403.884 19.6795 408.057 23.8527 408.057 29.0014V29.7557C408.057 34.9044 403.884 39.0776 398.736 39.0776Z" fill="#034FDF"/>
<path d="M431.367 39.0776H399.822V19.6795H431.367C436.515 19.6795 440.688 23.8527 440.688 29.0014V29.7557C440.688 34.9044 436.515 39.0776 431.367 39.0776Z" fill="#0048D1"/>
<path d="M419.859 125.533C419.896 125.642 418.046 126.354 415.729 127.123C413.411 127.893 411.503 128.428 411.467 128.32C411.431 128.212 413.28 127.5 415.598 126.731C417.915 125.961 419.823 125.425 419.859 125.533Z" fill="#DADBD8"/>
<path d="M313.259 278.372V313.192H317.921L324.178 277.981L313.259 278.372Z" fill="#DADBD8"/>
<path d="M355.643 278.372V313.192H360.304L366.561 277.981L355.643 278.372Z" fill="#DADBD8"/>
<path d="M408.641 278.372V313.192H403.979L397.723 277.981L408.641 278.372Z" fill="#DADBD8"/>
<path d="M438.417 278.372V313.192H433.754L427.498 277.981L438.417 278.372Z" fill="#DADBD8"/>
<path d="M342.383 201.781C342.383 201.781 323.96 196.469 318.88 203.551C313.799 210.631 313.259 278.855 313.259 278.855C313.259 278.855 346.139 279.453 346.744 278.855C347.35 278.256 342.383 201.781 342.383 201.781Z" fill="#DADBD8"/>
<path d="M437.478 266.409L438.282 148.12C438.387 132.859 426.005 120.451 410.744 120.523H367.324C352.127 120.523 339.91 133.032 340.267 148.225L343.056 266.409H437.478Z" fill="#E7E8E5"/>
<path d="M437.478 266.409C437.478 266.409 420.736 241.716 401.065 240.908C381.393 240.099 338.99 240.908 338.99 240.908C338.99 240.908 320.191 241.621 318.881 264.903V278.638H437.478V266.409Z" fill="#E7E8E5"/>
<path d="M398.987 241.615C382.759 241.53 366.53 241.445 350.301 241.359C345.219 241.333 339.437 240.709 334.511 242.107C320.002 246.226 317.869 264.785 319.023 277.587C319.071 278.113 318.252 278.11 318.205 277.587C317.237 266.855 318.37 251.819 327.551 244.671C332.846 240.548 339.001 240.481 345.32 240.515C363.209 240.61 381.098 240.703 398.987 240.796C399.513 240.799 399.514 241.618 398.987 241.615Z" fill="#DADBD8"/>
<path d="M353.669 124.223C353.669 124.223 354.086 124.059 354.917 123.848C355.337 123.777 355.857 123.677 356.475 123.585C357.095 123.519 357.811 123.425 358.618 123.355C361.849 123.079 366.539 122.912 372.332 122.879C375.228 122.859 378.401 122.876 381.807 122.924C385.206 123.009 388.861 122.92 392.679 123.424C394.586 123.66 396.529 123.991 398.486 124.469C400.44 124.947 402.414 125.58 404.295 126.538C406.173 127.518 407.851 128.865 409.406 130.376C410.949 131.899 412.318 133.655 413.366 135.632C413.878 136.626 414.293 137.666 414.573 138.74C414.868 139.818 414.941 140.915 415.071 141.977C415.326 144.116 415.535 146.227 415.741 148.301C416.141 152.452 416.436 156.463 416.677 160.286C417.155 167.933 417.369 174.829 417.513 180.619C417.651 186.41 417.706 191.096 417.742 194.334C417.753 195.937 417.763 197.189 417.77 198.064C417.768 198.474 417.767 198.796 417.766 199.033C417.763 199.252 417.758 199.364 417.751 199.364C417.744 199.364 417.735 199.253 417.724 199.034C417.715 198.797 417.702 198.475 417.686 198.065C417.661 197.191 417.626 195.94 417.581 194.337C417.495 191.079 417.371 186.4 417.22 180.627C417.039 174.841 416.795 167.949 416.296 160.31C416.044 156.492 415.741 152.485 415.337 148.34C415.129 146.268 414.918 144.159 414.662 142.024C414.53 140.953 414.458 139.874 414.173 138.843C413.901 137.805 413.498 136.794 412.999 135.823C411.976 133.893 410.632 132.167 409.116 130.668C407.594 129.185 405.925 127.848 404.108 126.898C402.274 125.96 400.324 125.33 398.391 124.853C396.455 124.375 394.525 124.042 392.633 123.802C388.849 123.292 385.205 123.367 381.802 123.266C378.398 123.204 375.227 123.171 372.332 123.172C366.544 123.167 361.858 123.289 358.631 123.516C357.824 123.574 357.111 123.654 356.491 123.708C355.88 123.794 355.361 123.869 354.933 123.93C354.515 124.005 354.207 124.109 353.993 124.154C353.781 124.206 353.671 124.229 353.669 124.223Z" fill="#DADBD8"/>
<path d="M423.094 155.328C423.131 155.436 421.653 156.054 419.791 156.709C417.929 157.363 416.388 157.807 416.35 157.699C416.313 157.59 417.791 156.973 419.653 156.318C421.516 155.664 423.056 155.22 423.094 155.328Z" fill="#DADBD8"/>
<path d="M419.432 162.125C419.427 162.238 418.733 162.3 417.882 162.262C417.03 162.225 416.345 162.101 416.35 161.987C416.355 161.873 417.049 161.811 417.9 161.849C418.751 161.887 419.438 162.01 419.432 162.125Z" fill="#DADBD8"/>
<path d="M391.577 159.861C391.569 159.841 391.721 159.748 392.035 159.732C392.344 159.713 392.823 159.81 393.266 160.177C393.704 160.517 394.093 161.25 393.867 162.024C393.669 162.764 392.985 163.484 392.052 163.558C391.12 163.606 390.349 162.997 390.027 162.31C389.678 161.597 389.861 160.831 390.165 160.369C390.471 159.888 390.874 159.633 391.159 159.523C391.449 159.412 391.624 159.42 391.628 159.442C391.669 159.509 390.921 159.622 390.418 160.517C390.182 160.945 390.069 161.575 390.37 162.142C390.649 162.702 391.308 163.187 392.026 163.145C392.739 163.095 393.328 162.514 393.499 161.92C393.697 161.31 393.428 160.726 393.07 160.396C392.713 160.054 392.306 159.922 392.029 159.892C391.748 159.86 391.585 159.896 391.577 159.861Z" fill="#DADBD8"/>
<path d="M393.171 148.909C393.214 148.965 392.643 149.384 391.939 150.249C391.235 151.105 390.433 152.468 390.127 154.134C389.822 155.801 390.09 157.36 390.446 158.41C390.798 159.469 391.184 160.063 391.124 160.1C391.09 160.127 390.61 159.583 390.171 158.51C389.731 157.452 389.398 155.819 389.72 154.06C390.041 152.302 390.931 150.893 391.717 150.059C392.507 149.21 393.149 148.872 393.171 148.909Z" fill="#DADBD8"/>
<path d="M392.1 175.202C392.067 175.231 391.511 174.674 390.886 173.575C390.261 172.487 389.596 170.829 389.413 168.898C389.323 167.935 389.341 167.012 389.464 166.179C389.587 165.344 389.878 164.597 390.303 164.092C390.721 163.586 391.213 163.332 391.562 163.243C391.914 163.149 392.117 163.191 392.116 163.213C392.149 163.276 391.263 163.286 390.534 164.274C389.799 165.229 389.661 167.011 389.825 168.858C390.002 170.723 390.6 172.339 391.145 173.438C391.687 174.544 392.157 175.16 392.1 175.202Z" fill="#DADBD8"/>
<path d="M385.372 161.295C385.287 161.223 386.123 160.481 387.421 160.485C388.72 160.472 389.561 161.207 389.477 161.279C389.414 161.383 388.573 160.881 387.423 160.899C386.273 160.89 385.437 161.397 385.372 161.295Z" fill="#DADBD8"/>
<path d="M363.951 159.861C363.944 159.841 364.096 159.748 364.41 159.732C364.719 159.713 365.198 159.81 365.64 160.177C366.079 160.517 366.468 161.25 366.242 162.024C366.045 162.764 365.36 163.484 364.428 163.558C363.496 163.606 362.724 162.997 362.402 162.31C362.052 161.597 362.236 160.831 362.541 160.369C362.847 159.888 363.249 159.633 363.535 159.523C363.825 159.412 364 159.42 364.003 159.442C364.044 159.509 363.295 159.622 362.793 160.517C362.557 160.945 362.444 161.575 362.745 162.142C363.023 162.702 363.682 163.187 364.4 163.145C365.115 163.095 365.702 162.514 365.875 161.92C366.072 161.31 365.802 160.726 365.445 160.396C365.088 160.054 364.681 159.922 364.404 159.892C364.123 159.86 363.96 159.896 363.951 159.861Z" fill="#DADBD8"/>
<path d="M365.545 148.909C365.589 148.965 365.018 149.384 364.313 150.249C363.609 151.105 362.807 152.468 362.501 154.134C362.197 155.801 362.465 157.36 362.82 158.41C363.173 159.469 363.559 160.063 363.498 160.1C363.465 160.127 362.985 159.583 362.546 158.51C362.106 157.452 361.773 155.819 362.093 154.06C362.416 152.302 363.306 150.893 364.091 150.059C364.881 149.21 365.524 148.872 365.545 148.909Z" fill="#DADBD8"/>
<path d="M364.476 175.202C364.443 175.231 363.885 174.674 363.262 173.575C362.637 172.487 361.971 170.829 361.789 168.898C361.697 167.935 361.717 167.012 361.839 166.179C361.962 165.344 362.254 164.597 362.679 164.092C363.097 163.586 363.588 163.332 363.937 163.243C364.29 163.149 364.492 163.191 364.492 163.213C364.524 163.276 363.638 163.286 362.909 164.274C362.175 165.229 362.037 167.011 362.201 168.858C362.377 170.723 362.975 172.339 363.52 173.438C364.063 174.544 364.532 175.16 364.476 175.202Z" fill="#DADBD8"/>
<path d="M357.747 161.295C357.662 161.223 358.498 160.481 359.796 160.485C361.095 160.472 361.936 161.207 361.852 161.279C361.788 161.383 360.948 160.881 359.798 160.899C358.647 160.89 357.812 161.397 357.747 161.295Z" fill="#DADBD8"/>
<path d="M436.976 200.991C436.976 200.991 408.809 193.703 403.716 203.292C398.623 212.88 397.723 278.928 397.723 278.928C397.723 278.928 438.394 280.427 438.492 278.713C438.59 276.998 436.976 200.991 436.976 200.991Z" fill="#F3F2F1"/>
<path d="M438.494 200.678C438.494 200.678 419.892 195.892 414.811 202.974C409.731 210.055 408.393 279.257 408.393 279.257C408.393 279.257 438.081 280.133 438.687 279.535C439.292 278.937 438.494 200.678 438.494 200.678Z" fill="#E7E8E5"/>
<path d="M427.6 235.161C427.583 235.15 427.673 235.001 427.949 234.975C428.204 234.942 428.651 235.114 428.848 235.566C429.039 236.007 429.09 236.529 429.014 237.133C428.965 237.431 428.848 237.772 428.572 238.025C428.298 238.282 427.884 238.383 427.515 238.311C426.982 238.23 426.546 237.811 426.403 237.357C426.247 236.904 426.292 236.447 426.43 236.076C426.733 235.334 427.285 234.973 427.614 234.785L427.636 234.951C427.323 234.819 427.161 234.733 427.172 234.701C427.183 234.669 427.364 234.695 427.694 234.775L427.867 234.816L427.717 234.941C427.438 235.172 426.974 235.561 426.761 236.194C426.664 236.502 426.647 236.879 426.777 237.221C426.901 237.565 427.198 237.838 427.586 237.903C428.154 238.021 428.564 237.579 428.639 237.066C428.726 236.561 428.701 236.032 428.579 235.681C428.455 235.314 428.154 235.164 427.947 235.137C427.734 235.109 427.619 235.191 427.6 235.161Z" fill="#DADBD8"/>
<path d="M422.308 222.61C422.353 222.583 422.815 223.215 423.464 224.298C424.116 225.382 424.94 226.926 425.711 228.696C426.479 230.469 427.044 232.127 427.392 233.342C427.739 234.557 427.886 235.325 427.835 235.34C427.776 235.356 427.529 234.615 427.113 233.431C426.697 232.245 426.093 230.618 425.331 228.862C424.567 227.106 423.791 225.556 423.209 224.442C422.628 223.328 422.256 222.642 422.308 222.61Z" fill="#DADBD8"/>
<path d="M433.412 223.776C433.464 223.804 433.173 224.46 432.692 225.512C432.21 226.564 431.544 228.017 430.844 229.635C430.144 231.255 429.542 232.735 429.105 233.807C428.668 234.878 428.389 235.54 428.333 235.52C428.281 235.503 428.462 234.807 428.83 233.705C429.198 232.603 429.761 231.099 430.464 229.471C431.168 227.845 431.878 226.404 432.429 225.381C432.98 224.359 433.363 223.75 433.412 223.776Z" fill="#DADBD8"/>
<path d="M422.432 257.677C422.405 257.673 422.424 257.388 422.483 256.878C422.541 256.368 422.645 255.632 422.788 254.725C423.074 252.911 423.535 250.415 424.152 247.681C424.769 244.947 425.424 242.495 425.944 240.733C426.204 239.852 426.426 239.144 426.593 238.658C426.759 238.171 426.863 237.907 426.891 237.914C426.948 237.931 426.673 239.033 426.227 240.81C425.779 242.588 425.172 245.045 424.555 247.772C423.942 250.499 423.436 252.979 423.077 254.777C422.717 256.574 422.491 257.686 422.432 257.677Z" fill="#DADBD8"/>
<path d="M433.389 250.1C433.33 250.116 433.101 249.417 432.721 248.295C432.341 247.173 431.796 245.631 431.114 243.959C430.432 242.288 429.744 240.805 429.23 239.737C428.716 238.669 428.392 238.009 428.445 237.979C428.491 237.953 428.907 238.562 429.489 239.602C430.073 240.642 430.809 242.118 431.498 243.803C432.185 245.489 432.691 247.059 433.001 248.209C433.312 249.359 433.442 250.087 433.389 250.1Z" fill="#DADBD8"/>
<path d="M188.732 313.343H194.116V291.942H188.732V313.343Z" fill="#E7E8E5"/>
<path d="M120.795 313.343H126.178V291.942H120.795V313.343Z" fill="#E7E8E5"/>
<path d="M152.934 313.343H158.317V291.942H152.934V313.343Z" fill="#DADBD8"/>
<path d="M95.166 313.343H100.549V291.942H95.166V313.343Z" fill="#DADBD8"/>
<path d="M120.696 291.942H194.116V242.594H120.696V291.942Z" fill="#E7E8E5"/>
<path d="M94.2168 291.942H120.696V242.594H94.2168V291.942Z" fill="#DADBD8"/>
<path d="M127.633 267.268C127.637 267.264 127.641 267.17 127.645 266.989C127.648 266.794 127.652 266.531 127.657 266.189C127.664 265.474 127.673 264.442 127.686 263.108C127.701 260.417 127.724 256.51 127.752 251.576L127.633 251.694C141.102 251.712 162.577 251.74 186.726 251.771C186.639 251.684 186.924 251.967 186.532 251.576V251.579V251.587V251.603V251.634V251.698V251.824V252.076V252.581V253.587C186.533 254.257 186.533 254.924 186.533 255.589C186.533 256.92 186.533 258.239 186.534 259.55C186.535 262.169 186.536 264.745 186.537 267.268L186.73 267.076C169.872 267.111 155.127 267.141 144.578 267.163C139.305 267.186 135.082 267.205 132.16 267.217C130.714 267.229 129.59 267.237 128.81 267.243C128.438 267.248 128.149 267.252 127.937 267.255C127.74 267.26 127.633 267.268 127.633 267.268C127.628 267.271 127.723 267.276 127.912 267.28C128.119 267.283 128.399 267.287 128.762 267.292C129.532 267.298 130.642 267.307 132.07 267.317C134.983 267.33 139.19 267.349 144.443 267.373C155.027 267.394 169.818 267.424 186.73 267.459L186.921 267.46V267.268C186.922 264.745 186.923 262.169 186.924 259.55C186.924 258.239 186.925 256.92 186.925 255.589C186.925 254.924 186.925 254.257 186.925 253.587V252.581V252.076V251.824V251.698V251.634V251.603V251.587V251.579V251.576C186.532 251.182 186.814 251.467 186.726 251.379C162.577 251.41 141.102 251.438 127.633 251.456H127.512L127.513 251.576C127.541 256.541 127.563 260.471 127.579 263.179C127.591 264.501 127.602 265.525 127.608 266.234C127.613 266.565 127.617 266.821 127.621 267.012C127.625 267.185 127.629 267.271 127.633 267.268Z" fill="#DADBD8"/>
<path d="M154.594 259.422C154.594 260.851 155.752 262.01 157.181 262.01C158.61 262.01 159.769 260.851 159.769 259.422C159.769 257.993 158.61 256.834 157.181 256.834C155.752 256.834 154.594 257.993 154.594 259.422Z" fill="#DADBD8"/>
<path d="M183.113 223.773L180.22 227.93C180.22 227.93 186.73 229.739 186.73 235.525C186.73 241.31 182.752 242.396 178.413 242.396C174.074 242.396 169.915 241.13 170.096 235.344C170.277 229.558 175.7 227.389 175.7 227.389L172.988 223.773H183.113Z" fill="#F3F2F1"/>
<path d="M101.383 231.443V242.039H146.943C149.869 242.039 152.241 239.667 152.241 236.741C152.241 233.816 149.869 231.443 146.943 231.443H101.383Z" fill="#DADBD8"/>
<path d="M101.383 239.818H118.074C118.841 239.818 119.462 239.197 119.462 238.43V235.053C119.462 234.286 118.841 233.664 118.074 233.664H101.383V239.818Z" fill="#FAFAF9"/>
<path d="M101.383 221.266V231.862H146.943C149.869 231.862 152.241 229.49 152.241 226.564C152.241 223.639 149.869 221.266 146.943 221.266H101.383Z" fill="#F3F2F1"/>
<path d="M101.383 229.641H118.074C118.841 229.641 119.462 229.019 119.462 228.253V224.876C119.462 224.109 118.841 223.487 118.074 223.487H101.383V229.641Z" fill="#DADBD8"/>
<path d="M505.952 114.085L430.24 79.3836L430.903 77.9372L506.615 112.639L505.952 114.085Z" fill="#DADBD8"/>
<path d="M488.885 313.192H487.295V105.024H488.885V313.192Z" fill="#DADBD8"/>
<path d="M488.045 188.016H488.45C489.47 188.016 490.297 187.189 490.297 186.168V161.925C490.297 160.904 489.47 160.077 488.45 160.077H488.045C487.025 160.077 486.197 160.904 486.197 161.925V186.169C486.197 187.189 487.025 188.016 488.045 188.016Z" fill="#F3F2F1"/>
<path d="M432.388 78.5782L430.275 82.2168L420.861 76.7431L423.259 73.0035C424.767 70.6547 427.825 69.8588 430.286 71.1755C432.956 72.6036 433.909 75.9607 432.388 78.5782Z" fill="#E7E8E5"/>
<path d="M430.57 80.7812L435.939 106.17L397.02 84.1263L420.86 76.7427L430.57 80.7812Z" fill="#F3F2F1"/>
<path d="M395.205 85.1807C397.153 81.5795 407.893 83.6174 419.192 89.732C430.491 95.8474 438.07 103.723 436.121 107.324C434.172 110.926 423.433 108.888 412.134 102.773C400.835 96.6585 393.255 88.7818 395.205 85.1807Z" fill="#DADBD8"/>
<path d="M510.265 313.192H465.299C465.299 313.192 471.988 306.38 488.091 307.036C504.195 307.691 510.265 313.192 510.265 313.192Z" fill="#DADBD8"/>
<path d="M485.041 105.054C485.041 106.738 486.406 108.104 488.09 108.104C489.775 108.104 491.141 106.738 491.141 105.054C491.141 103.369 489.775 102.005 488.09 102.005C486.406 102.005 485.041 103.369 485.041 105.054Z" fill="#F3F2F1"/>
<path d="M430.628 72.0298L432.759 68.4127L430.911 67.7233L429.227 71.5169L430.628 72.0298Z" fill="#E7E8E5"/>
<path d="M420.861 76.5287C420.845 76.6671 423.535 76.5017 426.439 77.867C429.365 79.1877 430.987 81.3385 431.081 81.2367C431.119 81.2097 430.775 80.6404 430.029 79.8723C429.287 79.105 428.104 78.1771 426.613 77.4877C425.122 76.8039 423.648 76.5081 422.583 76.4421C421.514 76.3737 420.858 76.4834 420.861 76.5287Z" fill="#DADBD8"/>
<path d="M422.016 91.3514V98.9187C422.016 99.7974 421.745 100.674 421.164 101.334C420.197 102.436 418.187 103.309 414.118 101.159C409.336 98.6325 409.811 95.797 410.583 94.2632C410.91 93.6144 411.432 93.0848 412.06 92.719L418.132 89.1815L422.016 91.3514Z" fill="#FAFAF9"/>
<path d="M419.462 89.9595C419.433 89.9491 419.29 90.2719 419.012 90.8436C418.733 91.4145 418.309 92.2304 417.701 93.1877C417.398 93.6672 417.049 94.1808 416.657 94.7207C416.464 94.9855 416.252 95.2479 415.992 95.4427C415.737 95.6375 415.418 95.733 415.14 95.6216C414.864 95.5151 414.648 95.2105 414.686 94.91C414.718 94.5983 414.955 94.3128 415.283 94.2683C415.613 94.2142 415.998 94.3486 416.363 94.5219C416.741 94.7009 417.116 94.8988 417.485 95.1167C417.854 95.3338 418.21 95.5668 418.548 95.8109C418.89 96.0478 419.157 96.3054 419.12 96.6251C419.09 96.9376 418.896 97.3622 418.703 97.5912C418.5 97.8258 418.197 97.7542 418.001 97.5037C417.804 97.2652 417.812 96.9431 417.915 96.6307C418.016 96.3206 418.197 96.0271 418.358 95.7314C418.679 95.1509 418.98 94.6046 419.261 94.0973C419.77 93.1511 420.198 92.3544 420.541 91.7167C420.835 91.1506 420.986 90.8301 420.962 90.8158C420.936 90.8015 420.737 91.0941 420.4 91.6364C420.026 92.2566 419.559 93.0311 419.005 93.951C418.711 94.4504 418.394 94.9879 418.058 95.5596C417.893 95.8482 417.697 96.1456 417.566 96.513C417.504 96.6967 417.46 96.901 417.469 97.1149C417.475 97.3383 417.562 97.5602 417.697 97.7383C417.834 97.914 418.028 98.073 418.287 98.1176C418.548 98.1677 418.829 98.046 418.99 97.8679C419.157 97.6914 419.252 97.491 419.34 97.3033C419.425 97.1109 419.51 96.9002 419.529 96.6505C419.553 96.4017 419.458 96.1226 419.303 95.9333C419.15 95.7401 418.966 95.6009 418.792 95.4745C418.443 95.2217 418.078 94.9815 417.698 94.7573C417.317 94.5323 416.93 94.3287 416.541 94.1466C416.148 93.9677 415.707 93.7896 415.214 93.866C414.712 93.9367 414.321 94.3971 414.29 94.8734C414.243 95.3743 414.577 95.822 415.001 95.9802C415.447 96.152 415.916 95.9755 416.213 95.7345C416.523 95.4936 416.743 95.201 416.938 94.9211C417.322 94.3669 417.662 93.8373 417.952 93.342C418.536 92.352 418.924 91.5052 419.161 90.9096C419.396 90.3125 419.487 89.969 419.462 89.9595Z" fill="#DADBD8"/>
<path d="M169.934 77.622V163.308H113.599V77.622H169.934Z" fill="#DADBD8"/>
<path d="M167.414 80.6469V160.328H115.901V80.6469H167.414Z" fill="#FAFAF9"/>
<path d="M148.854 107.49V133.484H134.679V107.49H148.854Z" fill="#DADBD8"/>
<path d="M484.232 313.368C484.232 313.483 378.489 313.575 248.082 313.575C117.628 313.575 11.9092 313.483 11.9092 313.368C11.9092 313.254 117.628 313.162 248.082 313.162C378.489 313.162 484.232 313.254 484.232 313.368Z" fill="#17282F"/>
<path d="M278.855 29.4532C278.855 38.3063 271.678 45.4824 262.826 45.4824C253.973 45.4824 246.796 38.3063 246.796 29.4532C246.796 20.601 253.973 13.4241 262.826 13.4241C271.678 13.4241 278.855 20.601 278.855 29.4532Z" fill="#17282F"/>
<path d="M282.938 29.4532C282.938 38.3063 275.76 45.4824 266.908 45.4824C258.056 45.4824 250.879 38.3063 250.879 29.4532C250.879 20.601 258.056 13.4241 266.908 13.4241C275.76 13.4241 282.938 20.601 282.938 29.4532Z" fill="#33535F"/>
<path d="M280.884 29.4532C280.811 29.4604 280.907 28.2065 280.368 26.0604C280.117 24.9861 279.607 23.7179 278.808 22.3757C278.004 21.0383 276.847 19.6436 275.275 18.4604C273.707 17.2892 271.733 16.2937 269.456 15.8937C267.194 15.5081 264.641 15.5813 262.211 16.506C260.989 16.9314 259.81 17.5739 258.726 18.3849C258.167 18.7698 257.678 19.2516 257.165 19.7152C256.702 20.228 256.215 20.7298 255.816 21.3126C254.121 23.5668 253.166 26.4651 253.139 29.4508C253.165 32.4382 254.12 35.3381 255.815 37.5931C256.214 38.1759 256.701 38.6776 257.165 39.1913C257.677 39.654 258.166 40.1359 258.726 40.5208C259.81 41.3326 260.989 41.9751 262.211 42.4005C264.641 43.326 267.194 43.3984 269.457 43.0127C271.734 42.6128 273.708 41.6172 275.276 40.4452C276.847 39.2628 278.004 37.8674 278.809 36.5307C279.607 35.1878 280.117 33.9195 280.368 32.8461C280.907 30.6992 280.811 29.4461 280.884 29.4532C280.891 29.4532 280.894 29.5304 280.893 29.6798C280.89 29.8532 280.886 30.0726 280.88 30.347C280.88 30.6404 280.863 31.003 280.791 31.4268C280.733 31.853 280.678 32.3467 280.524 32.8851C280.294 33.9776 279.801 35.2728 279.008 36.6484C278.209 38.0192 277.046 39.4553 275.453 40.6782C273.865 41.89 271.851 42.9245 269.52 43.3506C267.203 43.7609 264.584 43.6997 262.082 42.7591C260.823 42.3265 259.608 41.6697 258.49 40.8388C257.914 40.4436 257.409 39.9514 256.881 39.4744C256.402 38.948 255.901 38.4319 255.489 37.8332C253.739 35.5154 252.751 32.5272 252.725 29.4508C252.752 26.376 253.741 23.3895 255.489 21.0725C255.902 20.4737 256.403 19.9577 256.882 19.4305C257.41 18.955 257.914 18.462 258.491 18.0677C259.608 17.2367 260.823 16.58 262.082 16.1474C264.583 15.2068 267.203 15.1455 269.519 15.5558C271.85 15.9812 273.863 17.0157 275.453 18.2275C277.045 19.4504 278.208 20.8864 279.007 22.2572C279.8 23.6336 280.294 24.9289 280.524 26.0206C280.678 26.5597 280.733 27.0535 280.791 27.4789C280.863 27.9035 280.88 28.2661 280.88 28.5595C280.886 28.833 280.89 29.0533 280.893 29.2266C280.894 29.3769 280.891 29.4532 280.884 29.4532Z" fill="#17282F"/>
<path d="M262.946 32.5409C262.871 32.6276 261.368 31.4532 259.588 29.9185L259.552 29.8867L259.365 29.7261L259.556 29.5703C261.361 28.0977 262.873 26.9805 262.946 27.0688C263.017 27.1562 261.621 28.4157 259.818 29.8907L259.822 29.5734L259.859 29.6045C261.639 31.1391 263.02 32.4542 262.946 32.5409Z" fill="#17282F"/>
<path d="M272.314 27.0685C272.389 26.9818 273.893 28.1562 275.671 29.6908L275.708 29.7218L275.895 29.8825L275.703 30.0391C273.899 31.5117 272.386 32.6281 272.314 32.5406C272.242 32.4523 273.638 31.1928 275.442 29.7179L275.438 30.0351L275.401 30.0041C273.622 28.4695 272.24 27.1551 272.314 27.0685Z" fill="#17282F"/>
<path d="M275.145 29.7304C275.145 29.8449 271.684 29.938 267.416 29.938C263.147 29.938 259.688 29.8449 259.688 29.7304C259.688 29.6159 263.147 29.5237 267.416 29.5237C271.684 29.5237 275.145 29.6159 275.145 29.7304Z" fill="#17282F"/>
<path d="M495.928 29.4536C495.857 29.46 495.947 28.2641 495.432 26.2174C495.191 25.1933 494.705 23.9839 493.944 22.7037C493.176 21.4291 492.071 20.0988 490.572 18.9713C489.078 17.8549 487.194 16.9056 485.023 16.5247C482.866 16.1573 480.433 16.2273 478.117 17.1099C476.951 17.5154 475.827 18.1277 474.794 18.9013C474.26 19.2679 473.794 19.7275 473.305 20.1688C472.864 20.6586 472.399 21.1365 472.019 21.6923C470.403 23.8415 469.493 26.6046 469.466 29.4512C469.492 32.2994 470.402 35.0641 472.018 37.2142C472.399 37.7692 472.863 38.2478 473.304 38.7376C473.793 39.1789 474.259 39.6385 474.794 40.0051C475.827 40.7796 476.951 41.3918 478.117 41.7973C480.433 42.6799 482.867 42.7499 485.024 42.3826C487.195 42.0009 489.079 41.0523 490.572 39.9359C492.072 38.8076 493.176 37.4774 493.944 36.2028C494.705 34.9226 495.191 33.7132 495.432 32.689C495.947 30.6424 495.857 29.4473 495.928 29.4536C495.935 29.4536 495.938 29.5268 495.938 29.6699C495.935 29.8369 495.931 30.046 495.926 30.306C495.926 30.5867 495.91 30.9326 495.841 31.3373C495.787 31.7428 495.735 32.2151 495.589 32.7288C495.369 33.7712 494.899 35.0077 494.143 36.3212C493.381 37.63 492.272 39.0008 490.75 40.1681C489.235 41.325 487.313 42.3134 485.087 42.7197C482.876 43.1125 480.375 43.0537 477.986 42.1567C476.785 41.7433 475.625 41.1167 474.558 40.3232C474.007 39.9463 473.525 39.4755 473.02 39.0215C472.563 38.519 472.085 38.0252 471.691 37.4543C470.022 35.2414 469.077 32.3885 469.053 29.4512C469.078 26.5156 470.023 23.6642 471.692 21.4521C472.085 20.8804 472.565 20.3883 473.021 19.8857C473.525 19.4309 474.007 18.9602 474.559 18.5833C475.625 17.7905 476.785 17.164 477.986 16.7505C480.375 15.8536 482.875 15.7947 485.086 16.1875C487.312 16.5939 489.234 17.5814 490.75 18.7383C492.271 19.9064 493.38 21.2772 494.143 22.5852C494.899 23.8996 495.369 25.1352 495.589 26.1784C495.735 26.6921 495.787 27.1636 495.841 27.5699C495.909 27.9747 495.926 28.3205 495.926 28.6012C495.931 28.8604 495.935 29.0704 495.938 29.2373C495.938 29.3805 495.935 29.4536 495.928 29.4536Z" fill="#17282F"/>
<path d="M488.776 29.9346C488.776 30.0491 485.887 30.1421 482.324 30.1421C478.761 30.1421 475.873 30.0491 475.873 29.9346C475.873 29.8201 478.761 29.7278 482.324 29.7278C485.887 29.7278 488.776 29.8201 488.776 29.9346Z" fill="#17282F"/>
<path d="M482.324 35.7207C482.209 35.7207 482.117 32.9306 482.117 29.49C482.117 26.0479 482.209 23.2577 482.324 23.2577C482.438 23.2577 482.531 26.0479 482.531 29.49C482.531 32.9306 482.438 35.7207 482.324 35.7207Z" fill="#17282F"/>
<path d="M95.0878 265.071C87.4119 258.758 86.3971 248.08 87.4634 238.637C87.6408 237.062 87.5985 235.381 88.4592 234.053C89.3205 232.726 91.1487 231.917 92.5115 232.695C93.6414 233.339 94.0461 234.744 94.6139 235.925C95.3692 237.496 96.5723 238.842 98.0417 239.756C99.007 240.358 100.227 240.776 101.264 240.306C102.686 239.661 102.995 237.79 103.108 236.217C103.321 233.286 103.533 230.354 103.745 227.424C103.859 225.852 103.981 224.246 104.586 222.793C105.192 221.339 106.382 220.038 107.91 219.738C109.438 219.436 111.22 220.444 111.414 222.007C111.495 222.658 111.313 223.313 111.305 223.968C111.297 224.624 111.545 225.37 112.15 225.6C112.763 225.834 113.427 225.438 113.933 225.014C115.68 223.555 116.942 221.597 118.131 219.645C119.32 217.693 120.482 215.69 122.09 214.074C123.698 212.459 125.842 211.248 128.103 211.297C130.365 211.347 132.654 212.925 133.049 215.179C133.445 217.441 131.976 219.587 130.428 221.27C128.131 223.768 125.477 225.927 122.575 227.659C122.052 227.971 121.485 228.309 121.249 228.877C120.826 229.898 121.737 231.017 122.744 231.442C123.885 231.925 125.166 231.903 126.38 232.144C127.595 232.384 128.88 233.029 129.252 234.224C129.769 235.882 128.294 237.461 126.885 238.459C124.063 240.459 120.904 241.966 117.585 242.895C116.396 243.227 115.15 243.502 114.154 244.241C113.157 244.98 112.483 246.348 112.96 247.5C113.436 248.653 114.854 249.121 116.083 248.991C117.311 248.861 118.448 248.29 119.636 247.945C121.86 247.299 124.638 247.667 125.875 249.644C126.687 250.942 126.633 252.657 126.058 254.084C125.483 255.51 124.451 256.696 123.37 257.78C119.588 261.571 114.899 264.492 109.751 265.835C104.604 267.179 99.9238 267.284 95.0878 265.071Z" fill="#0082FF"/>
<path d="M87.1074 266.798H133.117V211.295H87.1074V266.798Z" fill="#0B5FFF"/>
<path d="M130.948 212.845C130.951 212.849 130.896 212.896 130.784 212.982C130.66 213.077 130.494 213.202 130.284 213.361C129.845 213.693 129.195 214.182 128.376 214.835C126.736 216.134 124.423 218.103 121.862 220.843C120.578 222.207 119.233 223.761 117.819 225.456C116.408 227.153 114.912 228.977 113.411 230.952C111.909 232.927 110.395 235.051 109.005 237.365C108.304 238.519 107.665 239.734 107.013 240.972C106.363 242.211 105.705 243.468 105.039 244.739C102.391 249.835 100.025 254.775 98.2473 259.425C96.4615 264.069 95.2743 268.41 94.6136 272.117C93.9425 275.823 93.7803 278.878 93.7675 280.983C93.7675 282.035 93.7834 282.853 93.8152 283.408C93.824 283.673 93.8319 283.881 93.8375 284.039C93.8415 284.18 93.8415 284.253 93.8359 284.254C93.8311 284.254 93.8216 284.183 93.8081 284.04C93.7962 283.885 93.7779 283.676 93.7556 283.411C93.7063 282.857 93.6713 282.039 93.6546 280.983C93.6324 278.874 93.7644 275.805 94.4116 272.081C95.0493 268.356 96.2205 263.992 97.9985 259.328C99.7676 254.659 102.132 249.703 104.782 244.603C105.45 243.331 106.109 242.074 106.759 240.836C107.41 239.6 108.056 238.375 108.761 237.215C110.164 234.891 111.689 232.762 113.2 230.788C114.711 228.811 116.216 226.991 117.636 225.299C119.061 223.609 120.417 222.059 121.714 220.7C124.302 217.969 126.645 216.018 128.308 214.744C129.138 214.105 129.798 213.63 130.25 213.314C130.468 213.164 130.638 213.047 130.767 212.958C130.884 212.88 130.945 212.841 130.948 212.845Z" fill="#17282F"/>
<path d="M108.845 237.211C108.825 237.212 108.79 236.969 108.744 236.529C108.695 236.087 108.646 235.447 108.597 234.656C108.498 233.074 108.436 230.883 108.376 228.469C108.317 226.053 108.224 223.87 108.1 222.293C108.042 221.505 107.987 220.867 107.944 220.427C107.902 219.986 107.89 219.74 107.91 219.738C107.929 219.735 107.98 219.974 108.055 220.411C108.133 220.849 108.219 221.485 108.304 222.273C108.481 223.851 108.607 226.042 108.666 228.46C108.719 230.843 108.766 232.999 108.803 234.647C108.823 235.39 108.841 236.018 108.856 236.521C108.868 236.964 108.865 237.209 108.845 237.211Z" fill="#17282F"/>
<path d="M129.351 235.024C129.349 235.044 129.06 235.054 128.536 235.057C128.015 235.062 127.259 235.066 126.326 235.101C124.46 235.155 121.883 235.319 119.05 235.626C116.215 235.939 113.662 236.33 111.823 236.666C110.903 236.828 110.162 236.978 109.649 237.08C109.136 237.183 108.85 237.231 108.845 237.211C108.84 237.191 109.118 237.106 109.623 236.968C110.131 236.833 110.867 236.65 111.786 236.462C113.62 236.073 116.177 235.647 119.019 235.334C121.861 235.027 124.449 234.894 126.323 234.893C127.259 234.885 128.017 234.913 128.54 234.943C129.063 234.976 129.351 235.004 129.351 235.024Z" fill="#17282F"/>
<path d="M98.2755 258.975C98.2667 258.979 98.2254 258.891 98.1562 258.719C98.0783 258.514 97.9837 258.263 97.8684 257.96C97.6219 257.301 97.2887 256.337 96.8927 255.141C96.1 252.749 95.1084 249.411 94.0644 245.713C93.0196 242.012 92.0607 238.669 91.3189 236.265C90.9549 235.095 90.6549 234.133 90.4318 233.418C90.3371 233.108 90.2591 232.853 90.1952 232.642C90.1439 232.464 90.1213 232.369 90.1312 232.365C90.1408 232.362 90.1812 232.451 90.2501 232.623C90.3281 232.828 90.4232 233.078 90.5384 233.381C90.7856 234.04 91.1183 235.004 91.5136 236.2C92.3072 238.591 93.2987 241.93 94.3427 245.63C95.3875 249.329 96.3465 252.672 97.0883 255.077C97.4525 256.246 97.7523 257.209 97.9749 257.922C98.0695 258.233 98.1482 258.489 98.2119 258.699C98.2627 258.877 98.2858 258.972 98.2755 258.975Z" fill="#17282F"/>
<path d="M125.811 252.433C125.813 252.443 125.718 252.473 125.536 252.522C125.32 252.576 125.056 252.642 124.735 252.722C123.997 252.899 122.999 253.137 121.786 253.428C119.296 254.024 115.867 254.888 112.078 255.847C108.289 256.807 104.848 257.639 102.345 258.184C101.093 258.457 100.079 258.668 99.3751 258.799C99.0491 258.857 98.7811 258.905 98.5632 258.945C98.3764 258.975 98.2778 258.986 98.2754 258.976C98.2738 258.966 98.3692 258.935 98.5513 258.887C98.766 258.833 99.0308 258.768 99.3512 258.687C100.09 258.51 101.087 258.271 102.3 257.981C104.79 257.385 108.22 256.521 112.009 255.562C115.798 254.602 119.238 253.77 121.742 253.225C122.993 252.952 124.008 252.741 124.712 252.61C125.037 252.552 125.305 252.503 125.524 252.465C125.71 252.434 125.809 252.423 125.811 252.433Z" fill="#17282F"/>
<path d="M88.0635 256.099C99.9146 246.351 101.481 229.865 99.8351 215.285C99.5607 212.852 99.6267 210.259 98.2973 208.209C96.9678 206.159 94.1443 204.909 92.0403 206.11C90.2955 207.105 89.6718 209.274 88.795 211.097C87.6287 213.523 85.77 215.6 83.5021 217.014C82.0115 217.943 80.1276 218.586 78.5272 217.861C76.3312 216.865 75.8544 213.977 75.6786 211.549C75.3512 207.022 75.0233 202.497 74.6962 197.973C74.5201 195.545 74.3328 193.066 73.3966 190.821C72.4608 188.578 70.6249 186.57 68.2652 186.105C65.9053 185.64 63.1552 187.195 62.8542 189.609C62.7294 190.613 63.0114 191.624 63.0232 192.637C63.035 193.649 62.6533 194.8 61.7184 195.157C60.7723 195.518 59.7467 194.905 58.9658 194.253C56.2679 191.999 54.3199 188.976 52.4845 185.962C50.6489 182.947 48.8546 179.854 46.3713 177.361C43.888 174.866 40.5776 172.996 37.0865 173.072C33.5951 173.15 30.0607 175.585 29.4506 179.066C28.8388 182.558 31.1083 185.872 33.4984 188.47C37.044 192.326 41.142 195.66 45.623 198.336C46.4306 198.818 47.3062 199.339 47.6696 200.215C48.3237 201.792 46.917 203.519 45.3612 204.177C43.5998 204.922 41.6222 204.888 39.7477 205.26C37.8723 205.631 35.8879 206.627 35.313 208.473C34.5141 211.031 36.7929 213.468 38.9684 215.01C43.3236 218.099 48.2032 220.426 53.3262 221.859C55.1629 222.371 57.087 222.796 58.6251 223.937C60.1635 225.079 61.204 227.192 60.4685 228.969C59.7327 230.749 57.5436 231.471 55.6461 231.271C53.7496 231.072 51.9953 230.188 50.1603 229.656C46.726 228.66 42.4372 229.228 40.5276 232.278C39.2725 234.285 39.3564 236.932 40.2444 239.134C41.1315 241.337 42.7248 243.169 44.3949 244.843C50.2339 250.694 57.474 255.205 65.4223 257.279C73.3696 259.353 80.5954 259.516 88.0635 256.099Z" fill="#0082FF"/>
<path d="M32.6945 175.462C32.6896 175.469 32.7753 175.54 32.948 175.675C33.1393 175.82 33.395 176.014 33.7192 176.26C34.3988 176.771 35.4014 177.527 36.6659 178.534C39.1967 180.542 42.7689 183.58 46.7225 187.81C48.7051 189.918 50.7821 192.317 52.965 194.933C55.1435 197.554 57.4541 200.369 59.7718 203.42C62.0898 206.469 64.4277 209.748 66.5752 213.321C67.6567 215.103 68.6434 216.979 69.6505 218.891C70.6524 220.803 71.669 222.744 72.6986 224.708C76.7874 232.574 80.4388 240.203 83.1845 247.381C85.9417 254.552 87.774 261.255 88.7953 266.977C89.8304 272.7 90.0821 277.418 90.1004 280.667C90.101 282.292 90.0758 283.556 90.0284 284.411C90.0134 284.82 90.001 285.142 89.9923 285.385C89.9867 285.604 89.9873 285.718 89.9945 285.719C90.0026 285.719 90.0168 285.607 90.038 285.388C90.0575 285.147 90.0846 284.825 90.1187 284.416C90.1951 283.562 90.2488 282.297 90.2756 280.667C90.3098 277.411 90.1063 272.673 89.1065 266.922C88.1215 261.172 86.3139 254.433 83.5682 247.232C80.8364 240.023 77.1869 232.371 73.0944 224.498C72.0644 222.533 71.0463 220.592 70.043 218.68C69.037 216.772 68.0397 214.881 66.9495 213.091C64.7849 209.502 62.4302 206.215 60.0973 203.166C57.765 200.113 55.4405 197.303 53.2479 194.691C51.0489 192.082 48.9533 189.689 46.9505 187.589C42.9565 183.374 39.3386 180.362 36.7715 178.395C35.489 177.407 34.4696 176.674 33.7714 176.186C33.4356 175.955 33.1729 175.773 32.9744 175.637C32.7933 175.515 32.6989 175.455 32.6945 175.462Z" fill="#17282F"/>
<path d="M66.8212 213.082C66.8519 213.084 66.9054 212.71 66.9768 212.028C67.0517 211.348 67.1271 210.36 67.2029 209.137C67.3557 206.694 67.452 203.312 67.544 199.585C67.6359 195.854 67.78 192.483 67.9701 190.05C68.0617 188.832 68.145 187.847 68.2124 187.168C68.2751 186.487 68.2953 186.109 68.2649 186.104C68.2344 186.099 68.1556 186.47 68.04 187.144C67.9195 187.819 67.7872 188.801 67.6555 190.019C67.3837 192.455 67.189 195.837 67.0973 199.571C67.0156 203.25 66.9423 206.579 66.8864 209.123C66.8538 210.271 66.8255 211.24 66.8029 212.017C66.7858 212.7 66.7901 213.08 66.8212 213.082Z" fill="#17282F"/>
<path d="M35.1602 209.705C35.1617 209.736 35.6096 209.753 36.4166 209.757C37.2226 209.765 38.3891 209.771 39.8301 209.824C42.7121 209.907 46.6893 210.163 51.0651 210.636C55.4412 211.118 59.3833 211.722 62.2212 212.241C63.6432 212.49 64.788 212.724 65.5801 212.88C66.3721 213.039 66.8135 213.113 66.8213 213.082C66.8287 213.051 66.4001 212.92 65.6186 212.708C64.8362 212.499 63.6981 212.218 62.2802 211.925C59.4492 211.324 55.5011 210.668 51.1117 210.185C46.7235 209.711 42.7276 209.505 39.835 209.504C38.3889 209.492 37.2188 209.535 36.4115 209.581C35.6043 209.632 35.1592 209.674 35.1602 209.705Z" fill="#17282F"/>
<path d="M83.1401 246.688C83.1544 246.693 83.2175 246.557 83.324 246.29C83.4445 245.975 83.5908 245.587 83.7687 245.119C84.1501 244.101 84.6645 242.613 85.2755 240.767C86.4995 237.073 88.0302 231.919 89.6422 226.208C91.2557 220.496 92.7364 215.334 93.8814 211.622C94.4444 209.816 94.9072 208.331 95.2507 207.227C95.3978 206.748 95.5178 206.354 95.6172 206.029C95.6959 205.754 95.7301 205.607 95.7158 205.601C95.7007 205.596 95.6379 205.733 95.5314 205.999C95.4113 206.316 95.2642 206.701 95.0869 207.169C94.7052 208.187 94.1915 209.675 93.5801 211.523C92.3564 215.215 90.8249 220.37 89.2126 226.083C87.6 231.794 86.1191 236.955 84.9741 240.669C84.4108 242.473 83.9489 243.959 83.6048 245.061C83.4581 245.541 83.3376 245.936 83.2385 246.26C83.16 246.536 83.1252 246.682 83.1401 246.688Z" fill="#17282F"/>
<path d="M40.625 236.585C40.6219 236.602 40.7689 236.648 41.05 236.722C41.3827 236.806 41.791 236.907 42.2859 237.032C43.4264 237.304 44.9663 237.673 46.8393 238.122C50.6835 239.043 55.9787 240.375 61.828 241.856C67.6791 243.338 72.9919 244.623 76.8564 245.465C78.7886 245.885 80.3552 246.212 81.4427 246.413C81.9453 246.504 82.3595 246.578 82.6963 246.64C82.9839 246.686 83.1364 246.703 83.1395 246.688C83.1423 246.673 82.9956 246.626 82.7142 246.549C82.3828 246.467 81.9741 246.366 81.4784 246.242C80.3379 245.969 78.7991 245.601 76.926 245.151C73.0816 244.231 67.7855 242.898 61.9347 241.417C56.0856 239.935 50.7733 238.651 46.9089 237.808C44.9763 237.387 43.4099 237.062 42.3219 236.86C41.8197 236.769 41.4056 236.694 41.0686 236.634C40.781 236.586 40.6288 236.57 40.625 236.585Z" fill="#17282F"/>
<path d="M73.4229 284.071L74.5109 313.343H106.048L108.544 284.071H73.4229Z" fill="#17282F"/>
<path d="M70.377 274.395V284.071H112.307V274.395H70.377Z" fill="#17282F"/>
<path d="M108.983 283.909C108.983 284.017 101.081 284.105 91.3351 284.105C81.586 284.105 73.6855 284.017 73.6855 283.909C73.6855 283.801 81.586 283.714 91.3351 283.714C101.081 283.714 108.983 283.801 108.983 283.909Z" fill="#33535F"/>
<path d="M347.4 308.399L320.78 170.606L320.814 170.597C320.763 170.393 320.713 170.199 320.663 169.998L320.657 169.973H320.656C316.57 153.77 313.344 149.795 313.344 149.795L273.525 150.882C270.4 156.498 270.004 169.973 270.004 169.973C269.576 171.624 275.711 305.67 275.711 305.67L292.216 305.62L296.723 178.5L332.336 308.735L347.4 308.399Z" fill="#17282F"/>
<path d="M307.253 174.194C307.288 174.324 302.855 175.584 297.355 177.007C291.854 178.431 287.369 179.48 287.335 179.349C287.301 179.218 291.731 177.959 297.233 176.535C302.733 175.111 307.22 174.063 307.253 174.194Z" fill="#33535F"/>
<path d="M278.808 307.373C278.694 307.376 277.694 275.712 276.574 236.657C275.454 197.589 274.639 165.926 274.754 165.922C274.868 165.919 275.868 197.577 276.988 236.645C278.107 275.699 278.923 307.37 278.808 307.373Z" fill="#33535F"/>
<path d="M283.347 305.007C283.232 305.008 283.032 273.834 282.899 235.386C282.766 196.926 282.75 165.758 282.865 165.758C282.979 165.758 283.179 196.925 283.313 235.385C283.445 273.832 283.461 305.007 283.347 305.007Z" fill="#33535F"/>
<path d="M290.34 163.865C290.456 163.867 290.018 195.466 289.365 234.436C288.71 273.419 288.088 305.009 287.973 305.007C287.859 305.005 288.296 273.412 288.95 234.429C289.603 195.459 290.227 163.863 290.34 163.865Z" fill="#33535F"/>
<path d="M296.723 178.5C296.609 178.505 296.359 175.084 296.163 170.86C295.969 166.634 295.905 163.206 296.02 163.201C296.133 163.195 296.384 166.616 296.578 170.841C296.772 175.065 296.837 178.494 296.723 178.5Z" fill="#33535F"/>
<path d="M336.102 308.306C335.99 308.333 328.108 275.869 318.499 235.805C308.886 195.727 301.187 163.226 301.297 163.2C301.408 163.174 309.289 195.631 318.901 235.709C328.511 275.772 336.213 308.279 336.102 308.306Z" fill="#33535F"/>
<path d="M340.854 308.191C340.744 308.217 333.266 275.467 324.156 235.052C315.042 194.624 307.746 161.84 307.858 161.815C307.969 161.79 315.445 194.532 324.559 234.962C333.669 275.375 340.966 308.166 340.854 308.191Z" fill="#33535F"/>
<path d="M343.866 307.372C343.753 307.395 337.253 274.825 329.35 234.637C321.444 194.435 315.129 161.836 315.241 161.815C315.353 161.793 321.851 194.355 329.757 234.557C337.66 274.745 343.977 307.351 343.866 307.372Z" fill="#33535F"/>
<path d="M276.398 94.9039L249.896 72.0453L250.409 39.4606L250.92 38.7728C251.195 38.3951 251.509 37.98 251.88 37.5228C252.308 36.9956 252.827 36.5456 253.405 36.187C254.107 35.7505 255.062 35.209 255.674 35.0706C256.431 34.8997 256.607 33.9113 255.968 33.6354C255.33 33.3611 253.232 33.7825 251.225 35.2869C249.218 36.7913 250.206 33.0176 250.541 31.6364C250.875 30.2553 251.711 25.9377 251.366 25.5099C250.859 24.8825 250.074 25.319 249.771 26.7058C249.465 28.1084 248.267 32.193 247.543 31.9998C246.83 31.8097 248.631 24.799 248.631 24.799C248.631 24.799 249.26 23.3558 248.431 23.1062C246.935 22.6537 245.572 30.2322 245.46 30.9566C245.382 31.4599 244.587 31.2786 244.699 30.7419C244.815 30.1901 246.66 23.786 245.142 23.3121C243.978 22.9471 243.962 29.5372 242.838 30.6727C241.715 31.8074 243.364 25.6641 242.236 25.3612C241.816 25.2491 241.486 25.2228 241.05 28.8741C240.839 30.6457 240.306 33.6155 240.253 36.4836L240.248 36.482L235.648 75.7363L262.332 105.727L276.398 94.9039Z" fill="#F8A58D"/>
<path d="M276.409 305.987L274.249 313.192L289.656 313.009L290.341 305.301L276.409 305.987Z" fill="#0082FF"/>
<path d="M289.953 311.548C289.955 311.613 289.098 311.69 287.71 311.725C286.323 311.763 284.406 311.751 282.294 311.699C280.277 311.634 278.452 311.575 276.885 311.524C275.502 311.469 274.645 311.418 274.645 311.349C274.645 311.283 275.501 311.212 276.888 311.18C278.275 311.146 280.192 311.158 282.306 311.211C284.321 311.274 286.145 311.331 287.713 311.379C289.096 311.432 289.953 311.48 289.953 311.548Z" fill="#17282F"/>
<path d="M283.346 305.007C283.481 305.015 283.509 306.47 283.411 308.257C283.311 310.045 283.122 311.487 282.988 311.48C282.853 311.473 282.824 310.018 282.923 308.231C283.022 306.443 283.211 305 283.346 305.007Z" fill="#17282F"/>
<path d="M274.258 313.163C274.25 313.163 274.257 313.163 274.249 313.163L274.247 313.018L274.505 311.351L274.645 311.354C274.652 311.368 274.7 311.383 274.788 311.396L274.258 313.163Z" fill="white"/>
<path d="M274.249 313.192L274.248 313.163C274.256 313.163 274.25 313.163 274.258 313.163L274.249 313.192L276.672 313.164L274.249 313.192Z" fill="#9BA6A6"/>
<path d="M274.249 313.192L274.258 313.163L274.787 311.396C275.085 311.443 275.833 311.482 276.885 311.524C278.452 311.575 280.277 311.634 282.293 311.699C283.573 311.73 284.781 311.747 285.842 311.747C286.533 311.747 287.163 311.74 287.71 311.725C288.731 311.699 289.465 311.651 289.78 311.601L289.656 313.009L276.672 313.164L274.249 313.192Z" fill="#F89DB4"/>
<path d="M285.842 311.747C284.78 311.747 283.572 311.73 282.293 311.699C280.276 311.634 278.452 311.575 276.884 311.524C275.832 311.482 275.084 311.443 274.787 311.396C274.699 311.383 274.651 311.368 274.645 311.354L282.963 311.462C282.971 311.473 282.979 311.48 282.988 311.481C282.989 311.481 282.989 311.481 282.989 311.481C282.997 311.481 283.007 311.474 283.016 311.462L289.785 311.55L289.78 311.601C289.464 311.651 288.73 311.699 287.709 311.726C287.162 311.741 286.533 311.747 285.842 311.747Z" fill="#9BA6A6"/>
<path d="M282.99 311.48C282.99 311.48 282.99 311.48 282.989 311.48C282.98 311.48 282.972 311.473 282.964 311.461L283.017 311.462C283.008 311.474 282.999 311.48 282.99 311.48Z" fill="#9BA6A6"/>
<path d="M288.972 24.0823C287.96 24.6651 291.134 30.1778 289.757 29.37C288.379 28.5621 286.668 22.1978 285.636 22.8498C284.292 23.6991 287.722 29.4121 287.977 29.9162C288.223 30.406 287.501 30.7861 287.297 30.3194C287.003 29.6483 283.735 22.6757 282.406 23.4971C281.669 23.9527 282.647 25.1852 282.647 25.1852C282.647 25.1852 286.193 31.4962 285.553 31.8635C284.901 32.2364 282.694 28.5979 282.037 27.3201C281.388 26.0582 280.516 25.8388 280.189 26.5751C279.965 27.0776 281.882 31.035 282.562 32.2826C283.241 33.5317 285.166 36.9254 282.84 35.9871C280.513 35.0496 278.377 35.1824 277.832 35.6118C277.285 36.042 277.709 36.9516 278.485 36.923C279.113 36.8983 280.174 37.1766 280.965 37.4176C281.617 37.6155 282.233 37.9169 282.782 38.3168C283.259 38.6627 283.669 38.9832 284.032 39.2774L284.701 39.8109L297.983 72.5531L285.916 100.637L304.618 107.6L313.025 70.4603L293.755 34.3181L293.75 34.3205C292.961 31.5629 291.682 28.8301 291.022 27.1722C289.663 23.7563 289.349 23.866 288.972 24.0823Z" fill="#F8A58D"/>
<path d="M348.256 309.762L348.197 308.191L332.286 308.652L332.424 313.831L333.407 313.864C337.785 313.971 355.676 314.127 358.572 313.226C361.802 312.218 348.256 309.762 348.256 309.762Z" fill="#0082FF"/>
<path d="M332.309 309.551L332.308 309.504C332.308 309.504 332.308 309.504 332.308 309.504L332.309 309.551Z" fill="white"/>
<path d="M332.433 313.619L332.309 309.55L332.309 309.505C332.491 309.487 332.674 309.477 332.856 309.477C334.001 309.477 335.109 309.839 336.044 310.476C337.079 311.18 337.829 312.237 338.124 313.397L332.439 313.501L332.433 313.619Z" fill="#F89DB4"/>
<path d="M340.404 314C337.378 314 334.545 313.948 332.424 313.831L333.407 313.864C334.977 313.902 338.282 313.948 342.012 313.948C343.846 313.948 345.783 313.936 347.666 313.909C345.292 313.967 342.788 314 340.404 314Z" fill="white"/>
<path d="M358.791 313.186C358.758 313.186 358.72 313.186 358.688 313.186C359.043 313.053 359.135 312.899 359.025 312.729C359.126 312.844 359.151 312.955 359.072 313.057C359.038 313.101 358.943 313.144 358.791 313.186Z" fill="#F0F0EE"/>
<path d="M358.432 313.265C358.481 313.252 358.528 313.239 358.571 313.226C358.612 313.212 358.651 313.199 358.687 313.186C358.719 313.186 358.758 313.186 358.79 313.186C358.693 313.213 358.573 313.239 358.432 313.265Z" fill="#9BA6A6"/>
<path d="M355.642 311.378C355.417 311.318 355.187 311.258 354.953 311.199C355.07 311.227 355.32 311.29 355.642 311.377V311.378Z" fill="white"/>
<path d="M355.87 311.439C355.795 311.419 355.718 311.398 355.643 311.378V311.377C355.715 311.396 355.791 311.418 355.87 311.439Z" fill="#F0F0EE"/>
<path d="M342.012 313.948C338.282 313.948 334.977 313.902 333.407 313.864L332.424 313.831L332.434 313.619V313.621L338.164 313.562C338.152 313.507 338.139 313.452 338.125 313.398L353.54 313.114C353.54 313.114 353.961 311.242 354.882 311.182C354.882 311.182 354.907 311.187 354.954 311.199C355.188 311.258 355.418 311.318 355.643 311.379C355.718 311.399 355.795 311.419 355.869 311.44C356.96 311.744 358.618 312.267 359.026 312.73C359.136 312.899 359.043 313.053 358.688 313.186C358.652 313.2 358.613 313.212 358.572 313.226C358.529 313.239 358.482 313.252 358.433 313.265C356.839 313.556 352.528 313.788 347.666 313.909C345.783 313.937 343.846 313.948 342.012 313.948Z" fill="#F89DB4"/>
<path d="M332.434 313.621V313.62L332.439 313.502L338.124 313.398C338.139 313.452 338.151 313.507 338.163 313.562L332.434 313.621Z" fill="#FCD5DF"/>
<path d="M332.188 313.499C332.188 313.505 332.282 313.512 332.462 313.519C332.697 313.526 332.954 313.533 333.245 313.542C334.028 313.553 334.991 313.566 336.128 313.582C338.562 313.599 341.925 313.582 345.637 313.488C349.352 313.392 352.712 313.238 355.14 313.096C356.274 313.022 357.235 312.959 358.016 312.908C358.306 312.885 358.562 312.865 358.797 312.846C358.976 312.829 359.069 312.817 359.068 312.811C359.068 312.805 358.974 312.804 358.795 312.809C358.559 312.819 358.302 312.829 358.011 312.839C357.229 312.874 356.268 312.918 355.133 312.97C352.703 313.08 349.344 313.214 345.632 313.309C341.922 313.403 338.561 313.441 336.128 313.456C334.991 313.463 334.028 313.468 333.246 313.473C332.955 313.477 332.697 313.48 332.463 313.483C332.283 313.488 332.188 313.493 332.188 313.499Z" fill="#17282F"/>
<path d="M353.541 313.342C353.599 313.348 353.626 312.708 354.04 312.051C354.441 311.387 355.024 311.045 354.99 311C354.977 310.956 354.306 311.252 353.874 311.962C353.431 312.667 353.494 313.355 353.541 313.342Z" fill="#17282F"/>
<path d="M348.8 311.261C348.846 311.286 349.062 311.027 349.283 310.683C349.503 310.338 349.646 310.038 349.6 310.014C349.554 309.987 349.338 310.247 349.118 310.591C348.897 310.936 348.755 311.236 348.8 311.261Z" fill="#17282F"/>
<path d="M347.499 310.664C347.535 310.7 347.78 310.539 348.046 310.304C348.312 310.068 348.498 309.849 348.462 309.814C348.425 309.778 348.18 309.939 347.914 310.175C347.648 310.409 347.462 310.629 347.499 310.664Z" fill="#17282F"/>
<path d="M346.646 309.296C346.647 309.346 347.018 309.38 347.476 309.373C347.932 309.365 348.303 309.319 348.301 309.27C348.3 309.221 347.929 309.187 347.472 309.194C347.015 309.201 346.645 309.247 346.646 309.296Z" fill="#17282F"/>
<path d="M346.337 308.323C346.321 308.367 346.729 308.526 347.268 308.549C347.806 308.573 348.228 308.451 348.216 308.404C348.206 308.354 347.788 308.394 347.277 308.37C346.765 308.35 346.353 308.273 346.337 308.323Z" fill="#17282F"/>
<path d="M349.299 309.962C349.298 309.983 349.69 310.017 350.317 309.93C350.628 309.887 350.997 309.808 351.393 309.679C351.59 309.609 351.796 309.554 352.006 309.425C352.105 309.36 352.215 309.269 352.25 309.125C352.287 308.982 352.2 308.826 352.084 308.751C351.096 308.308 350.137 308.842 349.791 309.319C349.599 309.563 349.515 309.798 349.478 309.959C349.442 310.121 349.448 310.215 349.459 310.216C349.496 310.226 349.517 309.841 349.898 309.395C350.087 309.178 350.375 308.962 350.752 308.848C351.108 308.74 351.619 308.699 351.967 308.893C352.132 308.999 352.075 309.178 351.898 309.282C351.734 309.387 351.519 309.454 351.333 309.524C350.951 309.658 350.595 309.748 350.293 309.806C349.686 309.922 349.298 309.933 349.299 309.962Z" fill="#17282F"/>
<path d="M349.563 310.003C349.578 310.012 349.722 309.767 349.661 309.342C349.63 309.134 349.539 308.889 349.362 308.658C349.175 308.453 348.936 308.169 348.5 308.198C348.265 308.232 348.157 308.485 348.2 308.643C348.223 308.808 348.308 308.949 348.385 309.061C348.543 309.293 348.72 309.481 348.883 309.622C349.211 309.902 349.467 310.007 349.477 309.989C349.495 309.965 349.269 309.824 348.98 309.532C348.836 309.386 348.678 309.2 348.537 308.976C348.391 308.78 348.284 308.423 348.538 308.373C348.792 308.343 349.059 308.572 349.221 308.757C349.387 308.958 349.482 309.176 349.528 309.365C349.617 309.748 349.53 309.996 349.563 310.003Z" fill="#17282F"/>
<path d="M332.391 309.461C332.395 309.494 332.842 309.409 333.562 309.469C334.273 309.523 335.267 309.767 336.145 310.38C337.021 310.994 337.55 311.813 337.804 312.434C338.065 313.059 338.101 313.482 338.137 313.478C338.148 313.476 338.151 313.37 338.128 313.18C338.105 312.99 338.048 312.717 337.931 312.391C337.704 311.743 337.174 310.877 336.26 310.237C335.345 309.599 334.303 309.366 333.57 309.343C333.201 309.328 332.903 309.353 332.7 309.387C332.497 309.419 332.388 309.45 332.391 309.461Z" fill="#17282F"/>
<path d="M340.112 312.073C340.107 312.119 341.144 312.249 342.431 312.226C343.718 312.205 344.75 312.038 344.742 311.992C344.735 311.941 343.703 312.026 342.427 312.047C341.152 312.071 340.116 312.021 340.112 312.073Z" fill="#17282F"/>
<path d="M337.009 312.15C336.971 312.187 337.099 312.352 337.211 312.57C337.327 312.786 337.388 312.981 337.443 312.976C337.494 312.975 337.517 312.742 337.384 312.492C337.253 312.241 337.042 312.114 337.009 312.15Z" fill="#17282F"/>
<path d="M335.796 310.827C335.759 310.863 335.866 311.014 336.035 311.163C336.204 311.314 336.37 311.407 336.407 311.371C336.444 311.335 336.336 311.185 336.168 311.035C335.999 310.885 335.833 310.791 335.796 310.827Z" fill="#17282F"/>
<path d="M334.102 310.253C334.116 310.303 334.327 310.295 334.56 310.365C334.797 310.431 334.967 310.547 335.007 310.512C335.049 310.484 334.909 310.278 334.618 310.194C334.326 310.11 334.086 310.208 334.102 310.253Z" fill="#17282F"/>
<path d="M332.903 309.993C332.885 310.04 332.978 310.113 333.112 310.156C333.244 310.2 333.367 310.198 333.384 310.153C333.402 310.106 333.309 310.032 333.176 309.988C333.042 309.944 332.921 309.947 332.903 309.993Z" fill="#17282F"/>
<path d="M313.025 114.727L308.699 137.239C317.722 149.795 318.543 160.566 318.543 160.566L269.997 166.246C270.005 157.453 276.398 143.232 276.398 143.232L268.608 116.634L254.501 98.2658L268.5 85.6485C268.232 86.3586 281.625 94.1096 281.625 94.1096L300.862 94.2734C300.862 94.2734 301.979 94.3624 303.626 94.8228L313.025 70.4606C313.025 70.4606 321.197 80.1112 319.805 94.2416C318.289 109.621 316.453 105.796 313.025 114.727Z" fill="#0082FF"/>
<path d="M286.371 134.498C286.394 134.513 286.339 134.665 286.201 134.922C286.06 135.176 285.844 135.546 285.466 135.929C285.094 136.304 284.514 136.699 283.758 136.74C283.383 136.764 282.974 136.648 282.635 136.447C282.29 136.249 281.993 135.992 281.684 135.771C281.087 135.325 280.376 135.154 279.737 135.2C279.095 135.239 278.556 135.5 278.168 135.799C277.388 136.419 277.208 137.078 277.14 137.042C277.1 137.049 277.175 136.322 277.981 135.574C278.378 135.216 278.979 134.886 279.705 134.819C280.42 134.741 281.258 134.933 281.925 135.435C282.569 135.921 283.116 136.398 283.747 136.358C284.369 136.346 284.901 136.035 285.266 135.715C285.996 135.04 286.307 134.452 286.371 134.498Z" fill="#FAFAF9"/>
<path d="M310.378 149.542C310.402 149.557 310.345 149.709 310.208 149.966C310.068 150.22 309.85 150.59 309.473 150.972C309.101 151.348 308.521 151.743 307.764 151.784C307.39 151.807 306.98 151.692 306.641 151.49C306.297 151.292 306.001 151.035 305.692 150.815C305.095 150.368 304.382 150.197 303.744 150.243C303.102 150.282 302.562 150.544 302.175 150.843C301.395 151.463 301.214 152.12 301.147 152.086C301.107 152.092 301.182 151.366 301.987 150.618C302.385 150.26 302.985 149.929 303.712 149.863C304.426 149.784 305.266 149.977 305.933 150.478C306.575 150.964 307.123 151.441 307.754 151.402C308.376 151.39 308.908 151.079 309.273 150.759C310.002 150.083 310.313 149.496 310.378 149.542Z" fill="#FAFAF9"/>
<path d="M294.941 125.803C294.964 125.786 295.087 125.891 295.279 126.109C295.469 126.33 295.74 126.661 295.969 127.149C296.192 127.628 296.36 128.308 296.136 129.031C296.028 129.392 295.778 129.735 295.47 129.983C295.166 130.238 294.821 130.427 294.508 130.639C293.881 131.044 293.473 131.653 293.295 132.268C293.108 132.882 293.167 133.48 293.312 133.947C293.623 134.894 294.177 135.292 294.121 135.342C294.114 135.382 293.458 135.06 293.037 134.045C292.839 133.548 292.737 132.87 292.927 132.165C293.102 131.468 293.574 130.748 294.275 130.297C294.956 129.863 295.592 129.515 295.775 128.91C295.979 128.322 295.872 127.716 295.698 127.261C295.319 126.343 294.875 125.847 294.941 125.803Z" fill="#FAFAF9"/>
<path d="M297.337 147.274C297.31 147.269 297.303 147.108 297.334 146.818C297.368 146.529 297.429 146.105 297.634 145.608C297.837 145.119 298.223 144.535 298.909 144.212C299.246 144.048 299.669 144 300.06 144.058C300.454 144.112 300.826 144.237 301.195 144.324C301.916 144.513 302.64 144.402 303.214 144.118C303.793 143.84 304.195 143.393 304.44 142.97C304.928 142.101 304.846 141.423 304.921 141.431C304.956 141.409 305.162 142.11 304.698 143.107C304.466 143.589 304.035 144.122 303.387 144.458C302.755 144.8 301.905 144.939 301.098 144.727C300.319 144.52 299.633 144.286 299.063 144.561C298.492 144.808 298.117 145.295 297.9 145.731C297.48 146.631 297.414 147.293 297.337 147.274Z" fill="#FAFAF9"/>
<path d="M300.403 158.782C300.383 158.764 300.468 158.625 300.654 158.401C300.842 158.18 301.129 157.86 301.574 157.56C302.014 157.266 302.659 156.993 303.41 157.103C303.781 157.155 304.16 157.349 304.452 157.614C304.75 157.876 304.99 158.186 305.249 158.463C305.746 159.02 306.41 159.33 307.045 159.41C307.682 159.5 308.263 159.35 308.701 159.134C309.589 158.68 309.897 158.072 309.955 158.119C309.996 158.12 309.779 158.818 308.841 159.391C308.381 159.664 307.726 159.869 307 159.789C306.285 159.725 305.501 159.369 304.947 158.746C304.412 158.142 303.971 157.566 303.344 157.479C302.732 157.368 302.149 157.567 301.728 157.809C300.879 158.326 300.457 158.841 300.403 158.782Z" fill="#FAFAF9"/>
<path d="M274.252 159.556C274.237 159.533 274.354 159.421 274.592 159.251C274.829 159.085 275.187 158.848 275.694 158.671C276.194 158.497 276.887 158.398 277.585 158.694C277.932 158.838 278.249 159.121 278.464 159.452C278.687 159.781 278.839 160.143 279.02 160.476C279.359 161.14 279.924 161.608 280.517 161.848C281.11 162.094 281.711 162.098 282.189 161.999C283.163 161.787 283.615 161.275 283.66 161.336C283.699 161.347 283.312 161.966 282.259 162.284C281.745 162.431 281.059 162.463 280.379 162.203C279.702 161.959 279.033 161.417 278.656 160.673C278.292 159.953 278.01 159.284 277.426 159.042C276.863 158.78 276.249 158.823 275.78 158.95C274.827 159.236 274.289 159.627 274.252 159.556Z" fill="#FAFAF9"/>
<path d="M301.297 119.947C301.293 119.92 301.445 119.864 301.73 119.801C302.014 119.743 302.436 119.668 302.972 119.706C303.499 119.745 304.176 119.93 304.699 120.478C304.96 120.747 305.139 121.133 305.205 121.523C305.278 121.913 305.276 122.305 305.308 122.683C305.357 123.427 305.689 124.08 306.139 124.536C306.585 124.999 307.135 125.239 307.614 125.339C308.592 125.529 309.211 125.239 309.227 125.313C309.258 125.339 308.658 125.754 307.565 125.627C307.035 125.558 306.393 125.317 305.871 124.807C305.347 124.315 304.948 123.551 304.897 122.719C304.849 121.914 304.855 121.188 304.415 120.734C304.002 120.269 303.421 120.066 302.94 119.997C301.953 119.881 301.303 120.027 301.297 119.947Z" fill="#FAFAF9"/>
<path d="M315.641 83.7419C315.662 83.7236 315.79 83.8222 315.993 84.0321C316.192 84.2428 316.479 84.5625 316.73 85.038C316.974 85.5063 317.174 86.1782 316.983 86.9113C316.893 87.2755 316.659 87.6309 316.363 87.8925C316.071 88.1605 315.736 88.3656 315.433 88.593C314.825 89.0264 314.446 89.653 314.296 90.2755C314.138 90.8989 314.223 91.4929 314.392 91.9525C314.747 92.8836 315.318 93.2557 315.264 93.309C315.259 93.3488 314.589 93.0577 314.121 92.063C313.9 91.5756 313.767 90.9029 313.924 90.1905C314.066 89.486 314.504 88.7449 315.184 88.2615C315.842 87.7963 316.463 87.4194 316.617 86.8056C316.794 86.2092 316.66 85.6089 316.465 85.1628C316.042 84.2635 315.576 83.788 315.641 83.7419Z" fill="#FAFAF9"/>
<path d="M292.054 115.163C292.05 115.135 292.201 115.079 292.486 115.017C292.771 114.959 293.192 114.883 293.729 114.921C294.256 114.961 294.933 115.145 295.455 115.693C295.717 115.963 295.896 116.349 295.962 116.738C296.035 117.128 296.032 117.521 296.065 117.898C296.114 118.642 296.446 119.296 296.895 119.751C297.342 120.214 297.892 120.455 298.371 120.554C299.349 120.745 299.967 120.455 299.984 120.528C300.015 120.554 299.414 120.97 298.322 120.843C297.791 120.773 297.15 120.532 296.627 120.022C296.103 119.53 295.705 118.767 295.653 117.934C295.606 117.129 295.612 116.404 295.172 115.949C294.759 115.484 294.177 115.281 293.697 115.212C292.71 115.096 292.059 115.242 292.054 115.163Z" fill="#FAFAF9"/>
<path d="M309.367 94.3601C309.363 94.3331 309.514 94.2758 309.799 94.2146C310.084 94.1565 310.506 94.081 311.042 94.1192C311.569 94.1581 312.246 94.3418 312.768 94.8904C313.03 95.16 313.209 95.5464 313.275 95.9353C313.349 96.3257 313.345 96.7185 313.379 97.0962C313.426 97.8404 313.759 98.4932 314.209 98.9488C314.655 99.4108 315.205 99.6517 315.684 99.7519C316.663 99.942 317.28 99.6525 317.297 99.7257C317.328 99.7519 316.728 100.167 315.635 100.041C315.104 99.9714 314.463 99.7289 313.941 99.22C313.417 98.7278 313.019 97.9645 312.966 97.132C312.918 96.3273 312.925 95.6013 312.486 95.1473C312.072 94.6821 311.49 94.4794 311.009 94.4102C310.022 94.2941 309.373 94.4396 309.367 94.3601Z" fill="#FAFAF9"/>
<path d="M274.145 120.154C274.158 120.13 274.313 120.178 274.576 120.303C274.837 120.431 275.217 120.629 275.618 120.987C276.012 121.34 276.435 121.899 276.514 122.652C276.555 123.025 276.46 123.44 276.276 123.789C276.095 124.142 275.853 124.452 275.649 124.771C275.232 125.39 275.097 126.11 275.175 126.745C275.245 127.384 275.534 127.911 275.852 128.282C276.51 129.03 277.177 129.178 277.144 129.246C277.153 129.286 276.424 129.248 275.637 128.481C275.259 128.101 274.899 127.518 274.796 126.796C274.682 126.087 274.833 125.238 275.3 124.548C275.754 123.881 276.204 123.311 276.133 122.683C276.089 122.062 275.753 121.545 275.415 121.197C274.703 120.502 274.1 120.221 274.145 120.154Z" fill="#FAFAF9"/>
<path d="M265.653 98.2372C265.648 98.211 265.797 98.1474 266.079 98.0734C266.361 98.0027 266.779 97.9096 267.317 97.9239C267.846 97.9406 268.529 98.0949 269.075 98.6205C269.348 98.8789 269.543 99.2566 269.626 99.6422C269.717 100.029 269.731 100.421 269.781 100.797C269.861 101.539 270.221 102.176 270.69 102.612C271.156 103.054 271.716 103.271 272.199 103.351C273.184 103.498 273.789 103.182 273.809 103.255C273.841 103.279 273.26 103.72 272.162 103.641C271.629 103.595 270.978 103.381 270.434 102.894C269.889 102.425 269.458 101.68 269.37 100.851C269.288 100.049 269.262 99.3234 268.803 98.8884C268.37 98.4424 267.78 98.2651 267.297 98.2166C266.306 98.1434 265.663 98.3159 265.653 98.2372Z" fill="#FAFAF9"/>
<path d="M266.914 89.0505C266.909 89.0227 267.058 88.9599 267.34 88.8859C267.622 88.8152 268.04 88.7221 268.578 88.7372C269.106 88.7531 269.789 88.9074 270.336 89.433C270.609 89.6906 270.804 90.0691 270.887 90.4548C270.977 90.842 270.992 91.234 271.042 91.6093C271.121 92.3512 271.481 92.9888 271.951 93.4246C272.417 93.8675 272.976 94.0838 273.46 94.1633C274.445 94.3104 275.05 93.9939 275.07 94.0671C275.102 94.0917 274.52 94.5322 273.423 94.4535C272.89 94.4074 272.238 94.1935 271.695 93.7077C271.15 93.2385 270.718 92.4927 270.631 91.6634C270.549 90.8611 270.523 90.1359 270.064 89.7017C269.63 89.2549 269.041 89.0776 268.558 89.0291C267.567 88.9559 266.924 89.1292 266.914 89.0505Z" fill="#FAFAF9"/>
<path d="M266.69 110.583C266.684 110.556 266.834 110.492 267.115 110.418C267.397 110.347 267.816 110.254 268.353 110.269C268.882 110.285 269.565 110.44 270.111 110.965C270.384 111.223 270.579 111.601 270.662 111.987C270.752 112.374 270.767 112.766 270.816 113.141C270.896 113.883 271.257 114.522 271.726 114.957C272.192 115.4 272.752 115.617 273.234 115.695C274.22 115.842 274.825 115.527 274.845 115.599C274.877 115.624 274.294 116.065 273.199 115.986C272.665 115.939 272.013 115.726 271.47 115.24C270.925 114.771 270.494 114.026 270.406 113.195C270.323 112.394 270.298 111.668 269.839 111.234C269.406 110.787 268.817 110.61 268.332 110.561C267.341 110.488 266.699 110.661 266.69 110.583Z" fill="#FAFAF9"/>
<path d="M260.576 96.4873C260.588 96.4626 260.743 96.5103 261.007 96.636C261.267 96.7632 261.647 96.9619 262.048 97.3198C262.442 97.6728 262.865 98.2318 262.943 98.9848C262.986 99.3585 262.892 99.7728 262.706 100.121C262.526 100.476 262.284 100.785 262.08 101.104C261.663 101.722 261.527 102.442 261.606 103.078C261.676 103.717 261.965 104.243 262.283 104.614C262.94 105.363 263.607 105.511 263.575 105.58C263.584 105.619 262.855 105.581 262.068 104.813C261.69 104.434 261.329 103.85 261.228 103.129C261.113 102.419 261.264 101.571 261.732 100.88C262.185 100.214 262.633 99.6432 262.563 99.015C262.52 98.3948 262.183 97.8788 261.845 97.5297C261.135 96.8347 260.531 96.5533 260.576 96.4873Z" fill="#FAFAF9"/>
<path d="M299.929 131.769C299.925 131.742 300.076 131.685 300.361 131.623C300.645 131.565 301.067 131.49 301.604 131.529C302.131 131.567 302.807 131.751 303.33 132.3C303.591 132.569 303.77 132.956 303.837 133.345C303.91 133.734 303.908 134.128 303.941 134.505C303.988 135.249 304.321 135.903 304.771 136.358C305.217 136.82 305.767 137.061 306.246 137.161C307.224 137.351 307.842 137.061 307.858 137.135C307.89 137.161 307.289 137.576 306.197 137.449C305.667 137.38 305.025 137.138 304.502 136.629C303.979 136.136 303.581 135.373 303.528 134.541C303.481 133.736 303.486 133.011 303.047 132.556C302.634 132.092 302.053 131.888 301.571 131.819C300.584 131.703 299.935 131.848 299.929 131.769Z" fill="#FAFAF9"/>
<path d="M277.275 152.564C277.249 152.553 277.291 152.396 277.406 152.127C277.522 151.862 277.705 151.474 278.045 151.058C278.382 150.651 278.923 150.204 279.673 150.096C280.044 150.037 280.462 150.115 280.819 150.286C281.179 150.451 281.499 150.68 281.825 150.87C282.461 151.261 283.186 151.367 283.817 151.263C284.452 151.166 284.967 150.856 285.326 150.523C286.046 149.835 286.165 149.163 286.235 149.192C286.274 149.181 286.266 149.911 285.532 150.729C285.169 151.124 284.6 151.507 283.884 151.639C283.179 151.782 282.326 151.667 281.616 151.228C280.932 150.802 280.343 150.378 279.718 150.474C279.1 150.543 278.599 150.9 278.265 151.253C277.599 151.991 277.342 152.606 277.275 152.564Z" fill="#FAFAF9"/>
<path d="M291.633 159.46C291.607 159.469 291.526 159.328 291.419 159.057C291.315 158.786 291.172 158.382 291.121 157.847C291.073 157.321 291.144 156.623 291.599 156.018C291.822 155.715 292.174 155.476 292.548 155.347C292.92 155.21 293.309 155.148 293.675 155.054C294.401 154.885 294.991 154.45 295.367 153.932C295.75 153.416 295.897 152.834 295.918 152.345C295.945 151.349 295.558 150.787 295.628 150.758C295.648 150.723 296.156 151.248 296.21 152.346C296.229 152.881 296.095 153.553 295.678 154.152C295.278 154.749 294.591 155.268 293.778 155.455C292.992 155.634 292.275 155.746 291.898 156.255C291.508 156.739 291.403 157.346 291.413 157.831C291.46 158.824 291.711 159.441 291.633 159.46Z" fill="#FAFAF9"/>
<path d="M283.194 143.156C283.176 143.135 283.277 143.009 283.49 142.809C283.704 142.613 284.029 142.332 284.507 142.089C284.98 141.852 285.655 141.662 286.385 141.865C286.748 141.961 287.099 142.202 287.356 142.501C287.619 142.798 287.819 143.137 288.042 143.443C288.465 144.057 289.086 144.447 289.705 144.607C290.326 144.775 290.922 144.698 291.384 144.539C292.32 144.199 292.702 143.634 292.754 143.688C292.793 143.694 292.492 144.359 291.489 144.811C290.999 145.024 290.324 145.146 289.614 144.977C288.912 144.824 288.178 144.374 287.706 143.686C287.251 143.02 286.885 142.394 286.274 142.23C285.681 142.043 285.077 142.167 284.63 142.356C283.722 142.763 283.24 143.221 283.194 143.156Z" fill="#FAFAF9"/>
<path d="M280.391 124.985C280.373 124.964 280.47 124.835 280.678 124.63C280.887 124.429 281.203 124.139 281.677 123.884C282.143 123.634 282.812 123.428 283.547 123.611C283.912 123.699 284.27 123.929 284.534 124.222C284.805 124.512 285.014 124.845 285.244 125.146C285.683 125.749 286.314 126.122 286.938 126.265C287.562 126.417 288.155 126.327 288.613 126.154C289.541 125.791 289.908 125.215 289.962 125.268C290.001 125.273 289.717 125.946 288.727 126.424C288.242 126.649 287.57 126.789 286.856 126.639C286.151 126.504 285.405 126.073 284.915 125.398C284.444 124.744 284.06 124.127 283.445 123.979C282.847 123.808 282.247 123.948 281.805 124.147C280.909 124.578 280.439 125.049 280.391 124.985Z" fill="#FAFAF9"/>
<path d="M282.625 56.4557C278.591 58.2853 276.97 62.7429 276.574 66.8394C276.178 70.9352 276.597 75.1995 275.016 79.0353C273.685 82.2659 270.949 85.2151 271.255 88.6763C271.484 91.2581 273.405 93.5306 273.757 96.1029C274.438 101.082 269.153 105.539 270.113 110.484C270.552 112.747 272.287 114.686 274.363 116.024C276.44 117.362 278.852 118.181 281.237 118.977C284.448 120.049 288.014 121.106 291.164 119.986C293.965 118.992 295.87 116.435 298.771 115.703C301.557 114.999 304.507 116.15 307.412 116.21C310.093 116.267 312.809 115.313 314.553 113.494C316.299 111.676 316.961 108.987 316.031 106.693C314.736 103.503 310.756 101.45 310.143 98.1067C309.589 95.0819 312.053 92.0859 311.276 89.0985C310.411 85.7709 305.958 84.0208 304.88 80.7416C303.587 76.8105 307.718 72.6185 306.109 68.7796C305.163 66.5222 302.443 65.0965 301.71 62.7771C301.208 61.186 301.749 59.4749 301.387 57.8544C300.763 55.0555 297.614 53.2442 294.543 52.6081C290.771 51.8264 286.672 52.348 283.444 54.2118C280.218 56.0749 277.95 59.2999 277.656 62.7803" fill="#17282F"/>
<path d="M288.646 53.6102C292.327 52.2052 296.622 52.5066 300.07 54.4133C303.519 56.3208 306.059 59.798 306.826 63.6623C307.444 66.7817 306.985 70.157 308.341 73.0322C309.813 76.1555 313.268 78.3016 313.792 81.7143C314.298 85.0118 311.839 88.0126 311.326 91.3085C310.791 94.7395 312.407 98.2111 312.016 101.662C311.63 105.083 309.1 108.167 305.821 109.217C302.543 110.266 298.693 109.224 296.392 106.663" fill="#17282F"/>
<path d="M299.21 60.618C299.506 58.2056 300.98 55.9657 303.077 54.738C305.175 53.5103 307.85 53.3226 310.097 54.2466C311.402 54.7825 312.584 55.7033 313.241 56.9516C314.023 58.4362 313.996 60.2411 313.536 61.8553C312.826 64.3424 311.06 66.5601 308.685 67.585C306.312 68.6115 303.361 68.3253 301.368 66.6762C299.377 65.0271 298.561 62.0183 299.649 59.6726" fill="#17282F"/>
<path d="M305.283 67.6486C305.284 67.6756 305.026 67.717 304.557 67.7535C304.088 67.7885 303.407 67.8267 302.559 67.7893C301.718 67.7392 300.688 67.6263 299.637 67.1548C298.588 66.7047 297.572 65.7927 297.051 64.5595C296.522 63.3341 296.464 62.0134 296.73 60.901C297 59.7839 297.541 58.8846 298.081 58.227C298.622 57.5638 299.167 57.1305 299.553 56.8586C299.946 56.5922 300.184 56.4825 300.198 56.5031C300.249 56.5675 299.315 57.0923 298.312 58.4067C297.82 59.0627 297.335 59.9333 297.102 60.9853C296.873 62.0285 296.94 63.2602 297.43 64.3933C297.916 65.5335 298.823 66.3636 299.797 66.8081C300.77 67.2685 301.76 67.4124 302.581 67.4967C304.237 67.6279 305.282 67.5754 305.283 67.6486Z" fill="#0082FF"/>
<path d="M306.179 66.8157C306.237 66.8467 305.646 67.3961 305.305 68.7248C305.138 69.3816 305.059 70.2212 305.154 71.1889C305.261 72.1542 305.516 73.2459 305.969 74.3965C306.401 75.5542 307.073 76.747 307.734 78.0717C308.391 79.3924 309.095 80.8491 309.423 82.5316C309.756 84.1942 309.565 86.1447 308.518 87.7453C307.529 89.3507 305.827 90.6388 303.811 91.0197L303.554 91.0674L303.57 90.8058C303.628 89.8087 303.691 88.7456 303.753 87.669L304.152 87.7572C303.912 88.3416 303.516 88.9149 302.991 89.3443C301.968 90.219 300.555 90.576 299.317 90.2921L299.063 90.2333L299.18 89.9995C300.1 88.1763 300.937 86.3554 301.233 84.49C301.375 83.5621 301.361 82.6326 301.156 81.7651C300.956 80.8936 300.53 80.1144 300.035 79.413C299.032 78.0128 297.774 76.8901 296.908 75.5725C296.021 74.2717 295.51 72.8786 295.24 71.5865C294.69 68.9784 295.133 66.8101 295.603 65.448C296.095 64.0717 296.584 63.4252 296.584 63.4252C296.625 63.4467 296.187 64.1233 295.746 65.4949C295.327 66.853 294.937 68.9888 295.51 71.5285C295.792 72.7864 296.305 74.1357 297.178 75.3873C298.026 76.6571 299.284 77.7607 300.334 79.1992C300.849 79.9203 301.31 80.7465 301.527 81.6736C301.751 82.596 301.769 83.5812 301.625 84.5496C301.322 86.4953 300.467 88.3504 299.548 90.184L299.41 89.8914C300.508 90.1434 301.796 89.8238 302.724 89.0278C303.201 88.6398 303.553 88.1238 303.768 87.6053L304.24 86.4643L304.166 87.6936C304.102 88.7702 304.038 89.8333 303.978 90.8296L303.738 90.6165C305.623 90.2659 307.246 89.0549 308.187 87.537C309.183 86.0246 309.374 84.2045 309.068 82.5976C308.765 80.9763 308.088 79.5339 307.447 78.214C306.803 76.8901 306.14 75.6799 305.716 74.4919C305.273 73.3159 305.03 72.198 304.941 71.208C304.866 70.2157 304.969 69.3538 305.164 68.6858C305.347 68.0108 305.636 67.5464 305.83 67.2427C306.05 66.9532 306.168 66.8077 306.179 66.8157Z" fill="#33535F"/>
<path d="M308.97 54.1515C308.995 54.1451 309.081 54.3614 309.184 54.7693C309.289 55.1772 309.392 55.7807 309.426 56.5345C309.503 58.0326 309.196 60.1914 308.022 62.2086C306.846 64.2259 305.118 65.5569 303.778 66.228C303.104 66.5715 302.528 66.7791 302.123 66.8896C301.718 67.0001 301.486 67.0319 301.48 67.0073C301.457 66.9357 302.359 66.7051 303.637 65.9712C304.908 65.2524 306.535 63.9357 307.664 62.0003C308.79 60.0641 309.133 58 309.133 56.5401C309.141 55.0667 308.896 54.1674 308.97 54.1515Z" fill="#33535F"/>
<path d="M306.744 64.1381C306.751 64.1826 306.119 64.3226 305.093 64.1969C304.078 64.0777 302.663 63.6204 301.44 62.5971C300.217 61.5722 299.519 60.2586 299.224 59.2798C298.92 58.2922 298.948 57.6458 298.992 57.6442C299.061 57.6354 299.138 58.2596 299.5 59.1828C299.853 60.0996 300.555 61.3146 301.705 62.2798C302.857 63.2436 304.176 63.7198 305.141 63.9075C306.113 64.1023 306.742 64.0689 306.744 64.1381Z" fill="#33535F"/>
<path d="M290.076 119.986C290.045 119.928 291.14 119.709 292.619 118.488C294.066 117.283 295.792 114.921 296.4 111.554C297.02 108.211 296.301 103.991 294.075 100.074C292.992 98.096 291.424 96.299 289.966 94.2889C289.238 93.2839 288.549 92.208 288.015 91.0249C287.485 89.8441 287.134 88.5456 287.054 87.213C286.881 84.5326 287.636 81.9762 288.579 79.691C289.538 77.3906 290.754 75.328 291.742 73.2949C292.747 71.2705 293.54 69.2619 293.895 67.2924C294.268 65.3284 294.14 63.4367 293.814 61.7733C293.097 58.4258 291.465 56.0618 290.155 54.6998C288.809 53.3393 287.829 52.8654 287.865 52.8161C287.869 52.8097 287.928 52.8392 288.042 52.9036C288.174 52.9823 288.337 53.0785 288.538 53.197C288.966 53.4689 289.569 53.9189 290.269 54.5861C291.632 55.9314 293.332 58.3073 294.101 61.7121C294.452 63.4034 294.601 65.3371 294.233 67.3536C293.884 69.3701 293.088 71.4191 292.086 73.4618C291.097 75.5149 289.893 77.5783 288.954 79.846C288.027 82.1018 287.299 84.6041 287.467 87.1859C287.609 89.7789 288.853 92.0848 290.297 94.052C291.73 96.0414 293.312 97.8646 294.408 99.8875C296.655 103.882 297.359 108.193 296.689 111.607C296.028 115.041 294.227 117.423 292.722 118.612C291.963 119.22 291.279 119.548 290.814 119.752C290.577 119.843 290.39 119.898 290.267 119.938C290.143 119.977 290.079 119.993 290.076 119.986Z" fill="#33535F"/>
<path d="M283.31 119.634C283.305 119.639 283.26 119.601 283.175 119.521C283.092 119.44 282.964 119.321 282.808 119.153C282.524 118.799 282.109 118.252 281.803 117.432C281.496 116.618 281.305 115.538 281.434 114.299C281.574 113.074 282.07 111.655 283.196 110.528C284.33 109.387 286.001 108.832 287.518 107.918C288.277 107.459 288.987 106.856 289.429 106.038C289.856 105.221 290.034 104.244 289.901 103.263C289.663 101.291 288.561 99.3727 287.063 97.8023C285.568 96.1977 283.744 94.7394 282.401 92.7436C281.733 91.7528 281.254 90.6277 281.06 89.4708C280.857 88.3147 280.888 87.1514 281.053 86.0414C281.376 83.8094 282.2 81.7969 282.932 79.9061C283.672 78.016 284.33 76.196 284.578 74.4228C284.828 72.6576 284.67 70.9504 284.115 69.5454C283.836 68.8449 283.46 68.2239 283.015 67.7111C282.573 67.1966 282.069 66.7839 281.592 66.407C280.629 65.6636 279.767 65.037 279.17 64.3977C278.571 63.76 278.272 63.1207 278.181 62.6723C278.078 62.2238 278.118 61.9805 278.118 61.9805C278.147 61.9773 278.136 62.2222 278.262 62.6508C278.377 63.081 278.686 63.6813 279.287 64.2864C279.886 64.8931 280.749 65.491 281.733 66.2242C282.221 66.5955 282.742 67.0074 283.214 67.5377C283.685 68.0665 284.088 68.7106 284.387 69.4365C284.982 70.8924 285.16 72.6521 284.92 74.4689C284.678 76.2938 284.019 78.1456 283.289 80.0436C282.564 81.9424 281.762 83.9295 281.454 86.0994C281.297 87.1784 281.271 88.298 281.465 89.3993C281.652 90.5005 282.104 91.5596 282.746 92.5154C284.036 94.438 285.843 95.8939 287.359 97.5248C288.894 99.146 290.035 101.128 290.28 103.221C290.416 104.26 290.222 105.326 289.748 106.212C289.261 107.102 288.484 107.744 287.698 108.211C286.117 109.139 284.48 109.669 283.401 110.737C282.321 111.79 281.819 113.144 281.663 114.327C281.517 115.523 281.679 116.575 281.954 117.378C282.537 118.995 283.37 119.596 283.31 119.634Z" fill="#33535F"/>
<path d="M305.916 114.055C305.903 114.063 305.831 113.937 305.703 113.688C305.564 113.446 305.419 113.054 305.307 112.534C305.18 112.014 305.159 111.356 305.196 110.603C305.244 109.848 305.399 109.004 305.591 108.083C305.782 107.162 306.023 106.161 306.169 105.078C306.245 104.538 306.278 103.976 306.27 103.401C306.252 102.826 306.141 102.244 305.997 101.658C305.672 100.489 305.005 99.37 304.156 98.3443C303.308 97.3122 302.294 96.3548 301.252 95.3728C300.208 94.3908 299.182 93.4223 298.302 92.3728C297.419 91.3311 296.704 90.1877 296.259 88.999C295.374 86.5937 295.593 84.2329 295.94 82.397C296.303 80.5387 296.799 79.0916 297.146 78.0992C297.324 77.6039 297.467 77.2214 297.571 76.9654C297.674 76.7077 297.734 76.575 297.748 76.5797C297.762 76.5845 297.727 76.7268 297.65 76.9924C297.556 77.3017 297.44 77.6842 297.299 78.1501C297 79.1544 296.55 80.6095 296.228 82.4486C295.921 84.2679 295.747 86.5699 296.617 88.8654C297.47 91.1753 299.446 93.1337 301.535 95.0715C302.578 96.0534 303.604 97.0243 304.471 98.0874C305.338 99.1434 306.032 100.319 306.364 101.554C306.512 102.174 306.622 102.788 306.634 103.391C306.636 103.993 306.595 104.573 306.51 105.126C306.344 106.232 306.086 107.232 305.877 108.146C305.668 109.059 305.495 109.886 305.427 110.622C305.369 111.355 305.366 111.995 305.466 112.505C305.641 113.528 305.967 114.033 305.916 114.055Z" fill="#33535F"/>
<path d="M55.8662 15.3208C53.8662 15.3208 52.8662 13.9165 52.8662 11.1079C52.8662 9.65088 53.1357 8.5415 53.6748 7.77979C54.2178 7.01416 55.0029 6.63135 56.0303 6.63135C57.9834 6.63135 58.96 8.05908 58.96 10.9146C58.96 12.3364 58.6924 13.4263 58.1572 14.1841C57.626 14.9419 56.8623 15.3208 55.8662 15.3208ZM55.9482 8.04346C55.1475 8.04346 54.7471 9.04932 54.7471 11.061C54.7471 12.9556 55.1396 13.9028 55.9248 13.9028C56.6904 13.9028 57.0732 12.9263 57.0732 10.9731C57.0732 9.02002 56.6982 8.04346 55.9482 8.04346Z" fill="black"/>
<path d="M93.9062 4.58447V13.1743H92.0605V6.67041C91.959 6.76025 91.8379 6.84619 91.6973 6.92822C91.5605 7.00635 91.4141 7.07861 91.2578 7.14502C91.1016 7.20752 90.9395 7.26221 90.7715 7.30908C90.6035 7.35205 90.4375 7.3833 90.2734 7.40283V5.84424C90.7539 5.70361 91.207 5.52393 91.6328 5.30518C92.0586 5.08643 92.4434 4.84619 92.7871 4.58447H93.9062Z" fill="black"/>
<path d="M134.482 11.6392H138.045V13.1743H132.455V12.5415C132.455 12.1118 132.527 11.7271 132.672 11.3872C132.816 11.0435 132.998 10.7368 133.217 10.4673C133.436 10.1938 133.674 9.95361 133.932 9.74658C134.193 9.53564 134.441 9.34619 134.676 9.17822C134.922 9.00244 135.137 8.83447 135.32 8.67432C135.508 8.51416 135.664 8.35596 135.789 8.19971C135.918 8.03955 136.014 7.87939 136.076 7.71924C136.139 7.55518 136.17 7.38135 136.17 7.19775C136.17 6.83838 136.068 6.56689 135.865 6.3833C135.662 6.19971 135.352 6.10791 134.934 6.10791C134.211 6.10791 133.52 6.39502 132.859 6.96924V5.34033C133.59 4.86768 134.414 4.63135 135.332 4.63135C135.758 4.63135 136.139 4.68799 136.475 4.80127C136.814 4.91064 137.102 5.06885 137.336 5.27588C137.57 5.48291 137.748 5.73486 137.869 6.03174C137.994 6.32471 138.057 6.65283 138.057 7.01611C138.057 7.40283 137.996 7.74658 137.875 8.04736C137.758 8.34814 137.6 8.62158 137.4 8.86768C137.205 9.11377 136.979 9.34033 136.721 9.54736C136.463 9.75049 136.195 9.94775 135.918 10.1392C135.73 10.272 135.549 10.4048 135.373 10.5376C135.201 10.6665 135.049 10.7954 134.916 10.9243C134.783 11.0493 134.678 11.1724 134.6 11.2935C134.521 11.4146 134.482 11.5298 134.482 11.6392Z" fill="black"/>
<path d="M172.014 12.8989V11.2876C172.576 11.6978 173.232 11.9028 173.982 11.9028C174.455 11.9028 174.822 11.8013 175.084 11.5981C175.35 11.395 175.482 11.1118 175.482 10.7485C175.482 10.3735 175.318 10.0845 174.99 9.88135C174.666 9.67822 174.219 9.57666 173.648 9.57666H172.869V8.15869H173.59C174.684 8.15869 175.23 7.79541 175.23 7.06885C175.23 6.38525 174.811 6.04346 173.971 6.04346C173.408 6.04346 172.861 6.2251 172.33 6.58838V5.07666C172.92 4.77979 173.607 4.63135 174.393 4.63135C175.252 4.63135 175.92 4.82471 176.396 5.21143C176.877 5.59814 177.117 6.1001 177.117 6.71729C177.117 7.81494 176.561 8.50244 175.447 8.77979V8.80908C176.041 8.8833 176.51 9.1001 176.854 9.45947C177.197 9.81494 177.369 10.2524 177.369 10.772C177.369 11.5571 177.082 12.1782 176.508 12.6353C175.934 13.0923 175.141 13.3208 174.129 13.3208C173.262 13.3208 172.557 13.1802 172.014 12.8989Z" fill="black"/>
<path d="M218.054 4.77197V10.0688H219.062V11.4517H218.054V13.1743H216.366V11.4517H212.704V10.0044C213.028 9.64111 213.364 9.24463 213.712 8.81494C214.06 8.38135 214.396 7.93604 214.72 7.479C215.044 7.02197 215.345 6.56299 215.622 6.10205C215.903 5.63721 216.142 5.19385 216.337 4.77197H218.054ZM214.362 10.0688H216.366V7.1333C216.229 7.38721 216.081 7.64502 215.921 7.90674C215.761 8.16455 215.593 8.42041 215.417 8.67432C215.241 8.92432 215.063 9.16846 214.884 9.40674C214.704 9.64111 214.53 9.86182 214.362 10.0688Z" fill="black"/>
<path d="M255.649 12.9575V11.3755C256.224 11.7271 256.835 11.9028 257.483 11.9028C257.972 11.9028 258.353 11.7876 258.626 11.5571C258.903 11.3228 259.042 11.0063 259.042 10.6079C259.042 9.77588 258.454 9.35986 257.278 9.35986C256.845 9.35986 256.345 9.39307 255.778 9.45947L256.095 4.77197H260.542V6.28369H257.507L257.39 7.96533C257.69 7.94189 257.95 7.93018 258.169 7.93018C259.032 7.93018 259.708 8.15674 260.196 8.60986C260.685 9.06299 260.929 9.67236 260.929 10.438C260.929 11.2856 260.638 11.979 260.056 12.5181C259.474 13.0532 258.685 13.3208 257.688 13.3208C256.88 13.3208 256.2 13.1997 255.649 12.9575Z" fill="black"/>
<path d="M301.873 10.3794C301.873 10.7935 301.801 11.1802 301.656 11.5396C301.512 11.8989 301.311 12.2114 301.053 12.4771C300.795 12.7388 300.488 12.9458 300.133 13.0981C299.777 13.2466 299.389 13.3208 298.967 13.3208C298.494 13.3208 298.07 13.2329 297.695 13.0571C297.324 12.8813 297.01 12.6274 296.752 12.2954C296.494 11.9595 296.297 11.5493 296.16 11.0649C296.023 10.5806 295.955 10.0317 295.955 9.41846C295.955 8.6958 296.043 8.0415 296.219 7.45557C296.398 6.86572 296.652 6.36182 296.98 5.94385C297.312 5.52588 297.713 5.20361 298.182 4.97705C298.65 4.74658 299.178 4.63135 299.764 4.63135C300.412 4.63135 300.916 4.70752 301.275 4.85986V6.40674C300.85 6.16455 300.385 6.04346 299.881 6.04346C299.568 6.04346 299.285 6.104 299.031 6.2251C298.777 6.34619 298.559 6.51807 298.375 6.74072C298.195 6.96338 298.053 7.23291 297.947 7.54932C297.846 7.86182 297.791 8.21143 297.783 8.59814H297.818C298.217 8.04736 298.805 7.77197 299.582 7.77197C299.93 7.77197 300.244 7.83447 300.525 7.95947C300.807 8.08447 301.047 8.26221 301.246 8.49268C301.445 8.71924 301.6 8.99268 301.709 9.31299C301.818 9.6333 301.873 9.98877 301.873 10.3794ZM300.062 10.4966C300.062 9.59424 299.693 9.14307 298.955 9.14307C298.787 9.14307 298.635 9.17432 298.498 9.23682C298.361 9.29932 298.244 9.38721 298.146 9.50049C298.049 9.61377 297.973 9.74854 297.918 9.90479C297.867 10.0571 297.842 10.2271 297.842 10.4146C297.842 10.6216 297.869 10.8149 297.924 10.9946C297.979 11.1743 298.055 11.3325 298.152 11.4692C298.254 11.6021 298.373 11.7075 298.51 11.7856C298.646 11.8638 298.799 11.9028 298.967 11.9028C299.135 11.9028 299.285 11.8696 299.418 11.8032C299.555 11.7329 299.67 11.6372 299.764 11.5161C299.861 11.3911 299.936 11.2427 299.986 11.0708C300.037 10.895 300.062 10.7036 300.062 10.4966Z" fill="black"/>
<path d="M338.753 5.83838C338.378 6.51416 338.042 7.14893 337.745 7.74268C337.448 8.33252 337.187 8.9165 336.96 9.49463C336.733 10.0688 336.54 10.6548 336.38 11.2524C336.22 11.8462 336.089 12.4868 335.987 13.1743H334.054C334.163 12.522 334.308 11.8931 334.487 11.2876C334.667 10.6821 334.874 10.0962 335.108 9.52979C335.347 8.95947 335.608 8.40479 335.894 7.86572C336.183 7.32666 336.487 6.79932 336.808 6.28369H332.905V4.77197H338.753V5.83838Z" fill="black"/>
<path d="M365.015 10.9126C365.015 10.6782 365.048 10.4536 365.114 10.2388C365.185 10.02 365.288 9.81885 365.425 9.63525C365.562 9.44775 365.731 9.28174 365.935 9.13721C366.142 8.98877 366.384 8.86768 366.661 8.77393C366.235 8.56299 365.905 8.29346 365.671 7.96533C365.437 7.6333 365.319 7.26611 365.319 6.86377C365.319 6.54346 365.386 6.24658 365.519 5.97314C365.655 5.69971 365.843 5.46338 366.081 5.26416C366.319 5.06494 366.603 4.91064 366.931 4.80127C367.263 4.68799 367.624 4.63135 368.015 4.63135C368.413 4.63135 368.778 4.68799 369.11 4.80127C369.442 4.91064 369.728 5.06494 369.966 5.26416C370.208 5.45947 370.396 5.69189 370.528 5.96143C370.661 6.23096 370.728 6.52393 370.728 6.84033C370.728 7.23877 370.603 7.60205 370.353 7.93018C370.103 8.25439 369.757 8.52197 369.315 8.73291C369.589 8.82666 369.829 8.94775 370.036 9.09619C370.243 9.24072 370.417 9.40674 370.558 9.59424C370.698 9.78174 370.804 9.98682 370.874 10.2095C370.944 10.4282 370.979 10.6567 370.979 10.895C370.979 11.2544 370.907 11.5825 370.763 11.8794C370.618 12.1724 370.413 12.4263 370.147 12.6411C369.886 12.8521 369.571 13.0161 369.204 13.1333C368.841 13.2505 368.438 13.3091 367.997 13.3091C367.563 13.3091 367.163 13.2524 366.796 13.1392C366.433 13.022 366.118 12.8579 365.853 12.647C365.591 12.436 365.386 12.1841 365.237 11.8911C365.089 11.5942 365.015 11.2681 365.015 10.9126ZM366.767 10.7544C366.767 10.9458 366.796 11.1177 366.854 11.27C366.913 11.4224 366.997 11.5513 367.106 11.6567C367.216 11.7622 367.345 11.8442 367.493 11.9028C367.646 11.9575 367.815 11.9849 368.003 11.9849C368.183 11.9849 368.347 11.9556 368.495 11.897C368.647 11.8384 368.778 11.7563 368.888 11.6509C368.997 11.5454 369.083 11.4165 369.146 11.2642C369.208 11.1118 369.239 10.9419 369.239 10.7544C369.239 10.5864 369.21 10.4263 369.151 10.2739C369.093 10.1216 369.009 9.99072 368.899 9.88135C368.79 9.76807 368.659 9.67822 368.507 9.61182C368.358 9.54541 368.19 9.51221 368.003 9.51221C367.827 9.51221 367.663 9.54346 367.511 9.60596C367.358 9.66455 367.228 9.75049 367.118 9.86377C367.009 9.97314 366.923 10.104 366.86 10.2563C366.798 10.4087 366.767 10.5747 366.767 10.7544ZM367.024 7.03369C367.024 7.18213 367.05 7.32275 367.101 7.45557C367.155 7.58447 367.228 7.69775 367.317 7.79541C367.407 7.88916 367.513 7.96338 367.634 8.01807C367.759 8.07275 367.89 8.1001 368.026 8.1001C368.167 8.1001 368.298 8.07275 368.419 8.01807C368.54 7.96338 368.646 7.88721 368.735 7.78955C368.829 7.69189 368.901 7.57861 368.952 7.44971C369.007 7.3208 369.034 7.18213 369.034 7.03369C369.034 6.88135 369.009 6.74072 368.958 6.61182C368.907 6.479 368.835 6.36572 368.741 6.27197C368.651 6.17432 368.544 6.09814 368.419 6.04346C368.298 5.98877 368.167 5.96143 368.026 5.96143C367.878 5.96143 367.741 5.99072 367.616 6.04932C367.495 6.104 367.39 6.18018 367.3 6.27783C367.214 6.37158 367.146 6.48486 367.095 6.61768C367.048 6.74658 367.024 6.88525 367.024 7.03369Z" fill="black"/>
<path d="M401.926 8.56885C401.926 9.31494 401.844 9.98291 401.68 10.5728C401.516 11.1587 401.275 11.6548 400.959 12.061C400.646 12.4673 400.264 12.7798 399.811 12.9985C399.357 13.2134 398.844 13.3208 398.27 13.3208C397.582 13.3208 396.99 13.2114 396.494 12.9927V11.4692C396.936 11.7583 397.467 11.9028 398.088 11.9028C398.725 11.9028 399.223 11.686 399.582 11.2524C399.941 10.8188 400.123 10.1919 400.127 9.37158L400.092 9.35986C399.721 9.91064 399.156 10.186 398.398 10.186C398.055 10.186 397.736 10.1216 397.443 9.99268C397.154 9.86377 396.902 9.68604 396.688 9.45947C396.477 9.229 396.311 8.95557 396.189 8.63916C396.072 8.32275 396.014 7.9751 396.014 7.59619C396.014 7.15479 396.086 6.75244 396.23 6.38916C396.375 6.02588 396.576 5.71338 396.834 5.45166C397.096 5.18994 397.408 4.98877 397.771 4.84814C398.135 4.70361 398.537 4.63135 398.979 4.63135C399.436 4.63135 399.846 4.72119 400.209 4.90088C400.572 5.07666 400.881 5.33252 401.135 5.66846C401.393 6.00439 401.588 6.4165 401.721 6.90479C401.857 7.39307 401.926 7.94775 401.926 8.56885ZM400.057 7.58447C400.057 7.36963 400.029 7.16846 399.975 6.98096C399.92 6.78955 399.844 6.62549 399.746 6.48877C399.648 6.35205 399.529 6.24463 399.389 6.1665C399.248 6.08447 399.094 6.04346 398.926 6.04346C398.766 6.04346 398.617 6.07861 398.48 6.14893C398.348 6.21924 398.232 6.31689 398.135 6.44189C398.037 6.56299 397.961 6.70947 397.906 6.88135C397.852 7.05322 397.824 7.23877 397.824 7.43799C397.824 7.65674 397.852 7.85205 397.906 8.02393C397.961 8.19189 398.037 8.33447 398.135 8.45166C398.236 8.56885 398.357 8.65869 398.498 8.72119C398.639 8.77979 398.795 8.80908 398.967 8.80908C399.131 8.80908 399.279 8.77783 399.412 8.71533C399.545 8.64893 399.658 8.56104 399.752 8.45166C399.85 8.34229 399.924 8.21338 399.975 8.06494C400.029 7.9165 400.057 7.75635 400.057 7.58447Z" fill="black"/>
<path d="M433.232 4.58447V13.1743H431.387V6.67041C431.285 6.76025 431.164 6.84619 431.023 6.92822C430.887 7.00635 430.74 7.07861 430.584 7.14502C430.428 7.20752 430.266 7.26221 430.098 7.30908C429.93 7.35205 429.764 7.3833 429.6 7.40283V5.84424C430.08 5.70361 430.533 5.52393 430.959 5.30518C431.385 5.08643 431.77 4.84619 432.113 4.58447H433.232ZM438.664 13.3208C436.664 13.3208 435.664 11.9165 435.664 9.10791C435.664 7.65088 435.934 6.5415 436.473 5.77979C437.016 5.01416 437.801 4.63135 438.828 4.63135C440.781 4.63135 441.758 6.05908 441.758 8.91455C441.758 10.3364 441.49 11.4263 440.955 12.1841C440.424 12.9419 439.66 13.3208 438.664 13.3208ZM438.746 6.04346C437.945 6.04346 437.545 7.04932 437.545 9.06104C437.545 10.9556 437.938 11.9028 438.723 11.9028C439.488 11.9028 439.871 10.9263 439.871 8.97314C439.871 7.02002 439.496 6.04346 438.746 6.04346Z" fill="black"/>
</g>
<path d="M26.8747 29.1952C26.8046 29.2015 26.8946 28.0056 26.38 25.959C26.139 24.9348 25.6522 23.7254 24.8909 22.4452C24.1228 21.1706 23.0189 19.8396 21.5197 18.7129C20.0254 17.5957 18.1419 16.6471 15.9705 16.2662C13.8134 15.8989 11.3798 15.9688 9.0636 16.8514C7.89825 17.257 6.77392 17.8692 5.74144 18.6429C5.2075 19.0095 4.74099 19.469 4.25214 19.9103C3.81108 20.4001 3.34672 20.878 2.96688 21.433C1.35076 23.5831 0.440427 26.3462 0.414028 29.1928C0.439497 32.041 1.35021 34.8057 2.96561 36.9549C3.34608 37.5107 3.80981 37.9894 4.25151 38.4792C4.74068 38.9205 5.20694 39.3801 5.7408 39.7466C6.77361 40.5203 7.89825 41.1334 9.0636 41.5389C11.3801 42.4215 13.814 42.4915 15.9711 42.1233C18.1425 41.7425 20.026 40.7939 21.5206 39.6767C23.0199 38.5492 24.1234 37.2189 24.8912 35.9443C25.6525 34.6641 26.139 33.4547 26.38 32.4306C26.8943 30.3839 26.8046 29.1888 26.8747 29.1952C26.8822 29.1952 26.8853 29.2683 26.8853 29.4114C26.8822 29.5784 26.8781 29.7875 26.8738 30.0476C26.8732 30.3282 26.8574 30.6733 26.789 31.0781C26.7344 31.4844 26.6822 31.9559 26.5362 32.4695C26.3166 33.5128 25.846 34.7484 25.09 36.0628C24.3278 37.3716 23.219 38.7424 21.698 39.9097C20.1822 41.0666 18.2599 42.0549 16.0342 42.4613C13.8233 42.8533 11.3224 42.7952 8.93384 41.8983C7.73207 41.4848 6.57204 40.8583 5.50536 40.0647C4.95505 39.6878 4.47232 39.2171 3.96796 38.7623C3.511 38.2598 3.03272 37.7667 2.63857 37.1958C0.969098 34.983 0.0248481 32.13 0 29.1928C0.0257784 26.2571 0.970291 23.405 2.63976 21.1929C3.03336 20.622 3.51227 20.1298 3.96884 19.6273C4.47264 19.1725 4.95528 18.7017 5.50568 18.3248C6.57228 17.5313 7.73238 16.9055 8.93384 16.492C11.3224 15.5951 13.823 15.5363 16.0332 15.9283C18.2593 16.3346 20.1813 17.323 21.697 18.4799C23.2183 19.6472 24.3275 21.0188 25.0897 22.3268C25.8454 23.6411 26.316 24.8768 26.5359 25.92C26.6822 26.4337 26.7344 26.9052 26.789 27.3115C26.8574 27.7162 26.8732 28.0621 26.8738 28.342C26.8781 28.602 26.8822 28.8111 26.8853 28.9789C26.8853 29.122 26.8822 29.1952 26.8747 29.1952Z" fill="#17282F"/>
<path d="M19.4786 28.9393C19.4786 29.0538 16.59 29.146 13.0277 29.146C9.46387 29.146 6.57617 29.0538 6.57617 28.9393C6.57617 28.8248 9.46387 28.7325 13.0277 28.7325C16.59 28.7325 19.4786 28.8248 19.4786 28.9393Z" fill="#17282F"/>
<defs>
<clipPath id="clip0_240_1287">
<rect width="498.353" height="314" fill="white" transform="translate(11.9092)"/>
</clipPath>
</defs>
</svg>
