<svg width="44" height="37" viewBox="0 0 44 37" fill="none" xmlns="http://www.w3.org/2000/svg">
<path d="M26.9138 19.8561C26.5081 21.3438 26.1025 21.4342 25.877 21.2989C25.7867 21.8398 25.6515 22.381 25.3811 22.9219V24.4999C24.3443 25.086 23.172 25.4014 21.9549 25.4014C20.7829 25.4014 19.6558 25.131 18.6188 24.5448V23.1473C18.2131 22.4712 18.0326 21.7499 17.9427 21.1187C17.7172 21.1187 17.4018 20.758 17.0861 19.631C16.6351 18.053 17.131 17.8279 17.4917 17.8728C17.2213 17.0615 17.176 16.2499 17.4015 15.4835C17.6269 14.6269 18.0776 13.9055 18.6188 13.3647C18.9345 13.004 19.3401 12.6886 19.7458 12.4178C20.0615 12.1923 20.4219 12.0121 20.8279 11.8769C21.1436 11.7866 21.459 11.6967 21.8197 11.6967C22.9017 11.6064 23.7131 11.8769 24.2992 12.2376C25.1559 12.7335 25.5165 13.3646 25.5165 13.3646C25.5165 13.3646 27.7256 13.4999 26.7788 18.1432C27.049 18.2332 27.2744 18.6388 26.9137 19.8561L26.9138 19.8561ZM21.9549 31.1266C18.7993 31.1266 15.8238 29.9996 13.4796 27.8807C13.1638 28.1062 12.8934 28.3317 12.578 28.6021C12.127 29.0078 11.8566 29.549 11.8566 30.1801V33.0654L13.8403 33.8317C19.1149 35.9056 24.9304 35.9056 30.205 33.8317L31.6025 33.2908L27.9509 29.6389C26.1025 30.6308 24.0739 31.1266 21.955 31.1266L21.9549 31.1266ZM44 30.1348V27.6552C44 27.1143 43.7745 26.6184 43.3689 26.3027C41.1148 24.4542 38.7254 23.2373 38.2295 23.0118C38.1846 22.9668 38.1393 22.9215 38.1393 22.8766V21.3889C38.3648 20.9379 38.5 20.442 38.5902 19.9914C38.7704 20.1266 39.1311 20.0364 39.4918 18.7741C39.8075 17.7373 39.627 17.3766 39.3566 17.2864C40.2132 13.2741 38.2745 13.1389 38.2745 13.1389C38.2745 13.1389 38.0041 12.598 37.2377 12.1471C36.7418 11.8313 36.0204 11.6062 35.0739 11.6961C34.7581 11.6961 34.4877 11.7864 34.2172 11.8763C33.8565 12.0115 33.5411 12.1468 33.2703 12.3722C34.127 13.9503 34.6229 15.7084 34.758 17.5116C34.9382 19.9009 34.3974 22.2902 33.3153 24.3641L40.3933 31.4421C41.0244 31.2619 41.6556 31.0814 42.2867 30.811L44 30.1348ZM31.5123 9.84795V9.71272C31.7378 9.26178 31.873 8.76584 31.9633 8.31527C32.1435 8.45049 32.5041 8.36023 32.8648 7.09797C33.1805 6.06117 33 5.70051 32.7296 5.61027C33.5862 1.59798 31.6475 1.46274 31.6475 1.46274C31.6475 1.46274 31.3771 0.921849 30.6107 0.470934C30.1148 0.155207 29.3935 -0.0699526 28.4469 0.0199858C28.1312 0.0199858 27.8607 0.110238 27.5903 0.200177C27.2296 0.335398 26.9142 0.470619 26.6434 0.696093C26.2827 0.921567 25.9673 1.19201 25.6516 1.50741C25.2006 1.95835 24.7949 2.58945 24.6148 3.35584C24.4346 3.98698 24.4346 4.70838 24.705 5.42977C24.4796 5.42977 24.2541 5.47474 24.2091 5.79047C26.7789 6.24142 29.123 7.45842 31.0164 9.35178C31.1966 9.48731 31.3771 9.66782 31.5123 9.84801V9.84795ZM18.4386 1.46271C18.4386 1.46271 18.1681 0.921825 17.4018 0.470909C16.9058 0.155183 16.1845 -0.0699769 15.2379 0.0199615C14.9222 0.0199615 14.6517 0.110214 14.3813 0.200152C14.0206 0.335374 13.7052 0.470595 13.4344 0.696069C13.0737 0.921543 12.7583 1.19199 12.4426 1.50738C11.9916 1.95833 11.586 2.58943 11.4058 3.35582C11.2256 3.98695 11.2256 4.70836 11.496 5.42975C11.1353 5.38478 10.7297 5.60994 11.1353 6.96245C11.4058 7.95425 11.6762 8.22475 11.8567 8.22475C11.947 8.76563 12.0822 9.35179 12.3976 9.8927C12.5328 9.71251 12.7133 9.532 12.8935 9.39678C14.7866 7.41374 17.131 6.19645 19.7008 5.74555C19.6558 5.6553 19.5656 5.61033 19.5206 5.61033C20.3319 1.59804 18.4386 1.46279 18.4386 1.46279L18.4386 1.46271ZM10.2787 32.1184V30.18C10.2787 29.098 10.7297 28.1061 11.586 27.43C11.8564 27.2046 12.1268 27.0244 12.3523 26.7989C10.2784 24.4546 9.15133 21.4794 9.15133 18.3235C9.15133 16.1144 9.69221 13.9955 10.7743 12.1021C10.2784 11.7864 9.55698 11.5613 8.65543 11.6512C8.3397 11.6512 8.06927 11.7414 7.79879 11.8314C7.43809 11.9666 7.12269 12.1018 6.85191 12.3273C6.49121 12.5528 6.17581 12.8232 5.86011 13.1386C5.40916 13.5896 5.00347 14.2207 4.8233 14.987C4.64311 15.6182 4.64311 16.3396 4.91356 17.061C4.55286 17.016 4.1472 17.2412 4.55286 18.5937C4.8233 19.5855 5.09375 19.856 5.27424 19.856C5.3645 20.4421 5.54469 21.028 5.86041 21.6142L5.86072 22.8768C5.86072 22.9218 5.81575 23.012 5.77047 23.012C5.27455 23.2375 2.8403 24.4548 0.63113 26.3029C0.225466 26.6186 0 27.1142 0 27.6554V30.135L1.71319 30.8111C4.46319 31.8932 7.39343 32.3442 10.2788 32.1187L10.2787 32.1184ZM39.7172 32.9297C40.5739 33.7864 40.5739 35.1838 39.7172 36.0854C38.8606 36.942 37.4631 36.942 36.5616 36.0854L28.8977 28.4215L29.3034 28.0159L28.6723 27.3847C24.2543 30.6756 17.9878 30.3149 14.0206 26.3027C9.6477 21.9297 9.6477 14.8068 14.0206 10.3888C18.3936 6.01583 25.5165 6.01583 29.9346 10.3888C33.9468 14.4011 34.3075 20.6674 31.0166 25.0404L31.6477 25.6715L32.0534 25.2659L39.7172 32.9297ZM27.9959 12.2822C24.6598 8.94606 19.205 8.94606 15.8689 12.2822C12.5328 15.6183 12.5328 21.0732 15.8689 24.4092C19.205 27.7454 24.6599 27.7454 27.9959 24.4092C31.3771 21.0281 31.3771 15.6183 27.9959 12.2822Z" fill="#0082FF"/>
</svg>
