<svg width="40" height="40" viewBox="0 0 40 40" fill="none" xmlns="http://www.w3.org/2000/svg">
<path d="M39.2984 0.000128571H7.7193C7.33175 0.000128571 7.01758 0.314298 7.01758 0.701853V4.44933C7.01758 4.83689 7.33175 5.15106 7.7193 5.15106C8.10686 5.15106 8.42103 4.83689 8.42103 4.44933V1.40356H38.5966V31.5791H35.228C34.8405 31.5791 34.5263 31.8933 34.5263 32.2808C34.5263 32.6684 34.8405 32.9826 35.228 32.9826H39.2983C39.4844 32.9826 39.663 32.9086 39.7944 32.7769C39.9261 32.6455 40 32.4669 40 32.2808V0.701725C40 0.515619 39.9261 0.337048 39.7944 0.205635C39.663 0.0739353 39.4844 0 39.2983 0L39.2984 0.000128571Z" fill="#0082FF"/>
<path d="M0.701596 40H32.2807C32.4668 40 32.6454 39.9261 32.7768 39.7944C32.9085 39.663 32.9824 39.4844 32.9824 39.2983V35.5508C32.9824 35.1632 32.6683 34.8491 32.2807 34.8491C31.8932 34.8491 31.579 35.1632 31.579 35.5508V38.5966H1.40344V8.42103H4.77199C5.15955 8.42103 5.47372 8.10686 5.47372 7.7193C5.47372 7.33175 5.15955 7.01758 4.77199 7.01758H0.701725C0.31417 7.01758 0 7.33175 0 7.7193V39.2984C0 39.4845 0.0739424 39.6631 0.205635 39.7945C0.337048 39.9262 0.515619 40.0001 0.701725 40.0001L0.701596 40Z" fill="#0082FF"/>
<path d="M32.2806 7.05273H7.7193C7.33175 7.05273 7.01758 7.3669 7.01758 7.75446V32.2807C7.01758 32.4668 7.09152 32.6454 7.22321 32.7768C7.35463 32.9085 7.5332 32.9825 7.7193 32.9825H32.2806C32.4667 32.9825 32.6453 32.9085 32.7767 32.7768C32.9084 32.6454 32.9823 32.4668 32.9823 32.2807V7.77589C32.9882 7.58616 32.9167 7.40228 32.7845 7.26613C32.6522 7.12997 32.4703 7.05296 32.2806 7.05323V7.05273ZM26.5262 20.7369H20.7017V26.5614C20.7017 26.949 20.3876 27.2631 20 27.2631C19.6124 27.2631 19.2983 26.949 19.2983 26.5614V20.7369H13.4738C13.0863 20.7369 12.7721 20.4228 12.7721 20.0352C12.7721 19.6477 13.0863 19.3335 13.4738 19.3335H19.2983V13.5087C19.2983 13.1212 19.6124 12.807 20 12.807C20.3876 12.807 20.7017 13.1212 20.7017 13.5087V19.3332H26.5262V19.3335C26.9137 19.3335 27.2279 19.6477 27.2279 20.0352C27.2279 20.4228 26.9137 20.7369 26.5262 20.7369V20.7369Z" fill="#0082FF"/>
</svg>
