<svg width="44" height="45" viewBox="0 0 44 45" fill="none" xmlns="http://www.w3.org/2000/svg">
<path d="M22.0088 0.000269783V4.71193H35.2728C37.2212 4.71193 38.805 6.29678 38.805 8.24411V12.7369H37.8706V8.24411C37.8706 6.81184 36.7048 5.64636 35.2728 5.64636C33.8406 5.64636 32.6751 6.81158 32.6751 8.24411H32.6761V15.3347H39.0134C38.3114 14.6888 37.872 13.7642 37.872 12.7377H38.8065C38.8065 13.4537 39.0973 14.103 39.568 14.5733C40.0379 15.0433 40.6879 15.3348 41.4036 15.3348C42.8352 15.3348 44.0006 14.1696 44.0006 12.7378L44.0003 0L22.0088 0.000269783Z" fill="#0082FF"/>
<path d="M31.7423 8.24423H31.741C31.741 7.21733 32.1824 6.29238 32.8834 5.64648H11.6381C10.2055 5.64648 9.04038 6.8117 9.04038 8.24423H9.04004V38.9156H31.7424L31.7423 8.24423ZM12.2847 34.3661C11.6972 34.3661 11.2194 33.8893 11.2194 33.3001C11.2194 32.7126 11.6968 32.2349 12.2847 32.2349C12.8715 32.2349 13.3499 32.7123 13.3499 33.3001C13.3499 33.8887 12.8715 34.3661 12.2847 34.3661ZM12.2847 10.4511C12.8715 10.4511 13.3499 10.9296 13.3499 11.5174C13.3499 12.1043 12.8715 12.5827 12.2847 12.5827C11.6972 12.5827 11.2194 12.1043 11.2194 11.5174C11.2198 10.9299 11.6972 10.4511 12.2847 10.4511ZM12.2847 28.9197C11.6972 28.9197 11.2194 28.4423 11.2194 27.8545C11.2194 27.2666 11.6968 26.7892 12.2847 26.7892C12.8715 26.7892 13.3499 27.2666 13.3499 27.8545C13.3499 28.4423 12.8715 28.9197 12.2847 28.9197ZM12.2847 23.4734C11.6972 23.4734 11.2194 22.996 11.2194 22.4082C11.2194 21.8213 11.6968 21.3429 12.2847 21.3429C12.8715 21.3429 13.3499 21.8214 13.3499 22.4082C13.3499 22.996 12.8715 23.4734 12.2847 23.4734ZM12.2847 18.0288C11.6972 18.0288 11.2194 17.5504 11.2194 16.9629C11.2194 16.376 11.6968 15.8976 12.2847 15.8976C12.8715 15.8976 13.3499 16.376 13.3499 16.9629C13.3499 17.5504 12.8715 18.0288 12.2847 18.0288ZM30.0295 33.7686H15.3902C15.1319 33.7686 14.923 33.5593 14.923 33.301C14.923 33.0427 15.1323 32.8338 15.3902 32.8338H30.0295C30.2881 32.8338 30.4967 33.0427 30.4967 33.301C30.4967 33.5593 30.2888 33.7686 30.0302 33.7686H30.0295ZM30.0295 28.3219H15.3902C15.1319 28.3219 14.923 28.113 14.923 27.8554C14.923 27.5961 15.1323 27.3882 15.3902 27.3882H30.0295C30.2881 27.3882 30.4967 27.5961 30.4967 27.8554C30.4971 28.113 30.2888 28.3219 30.0302 28.3219H30.0295ZM30.0295 22.8766H15.3902C15.1319 22.8766 14.923 22.6673 14.923 22.4094C14.923 22.1518 15.1323 21.9422 15.3902 21.9422H30.0295C30.2881 21.9422 30.4967 22.1515 30.4967 22.4094C30.4971 22.6673 30.2888 22.8766 30.0302 22.8766H30.0295ZM30.0295 17.4303H15.3902C15.1319 17.4303 14.923 17.221 14.923 16.9631C14.923 16.7055 15.1323 16.4959 15.3902 16.4959H30.0295C30.2881 16.4959 30.4967 16.7052 30.4967 16.9631C30.4967 17.221 30.2888 17.4303 30.0302 17.4303H30.0295ZM30.0295 11.9844H15.3902C15.1319 11.9844 14.923 11.7751 14.923 11.5172C14.923 11.2596 15.1323 11.0499 15.3902 11.0499H30.0295C30.2881 11.0499 30.4967 11.2593 30.4967 11.5172C30.4967 11.7747 30.2888 11.9844 30.0302 11.9844H30.0295Z" fill="#0082FF"/>
<path d="M26.8639 41.7627L26.3069 43.0652H13.9676L13.4106 41.7627H0.133545C0.0601479 41.7627 0.0135963 41.7933 0 41.8096V43.3845C0 44.0396 0.6796 44.5731 1.51413 44.5731H39.1246C39.95 44.5684 40.6234 44.0349 40.6234 43.3845V41.8096C40.6098 41.7936 40.5646 41.7627 40.4899 41.7627H26.8639ZM4.58255 43.4743C4.41367 43.4743 4.27605 43.337 4.27605 43.1674C4.27605 42.9992 4.41333 42.862 4.58255 42.862C4.75143 42.862 4.88905 42.9992 4.88905 43.1674C4.88939 43.337 4.75211 43.4743 4.58255 43.4743ZM35.7724 43.4743C35.6028 43.4743 35.4655 43.337 35.4655 43.1674C35.4655 42.9992 35.6028 42.862 35.7724 42.862C35.9413 42.862 36.0789 42.9992 36.0789 43.1674C36.0785 43.337 35.9409 43.4743 35.7724 43.4743ZM32.3132 43.4743C32.145 43.4743 32.0067 43.337 32.0067 43.1674C32.0067 42.9992 32.145 42.862 32.3132 42.862C32.4827 42.862 32.62 42.9992 32.62 43.1674C32.62 43.337 32.4827 43.4743 32.3132 43.4743Z" fill="#0082FF"/>
<path d="M14.5845 42.1308H25.6903L26.2476 40.8283H38.0067V21.3507C38.0067 20.2619 37.1212 19.3765 36.0325 19.3765H32.6767V20.4329H34.502C35.6566 20.4329 36.5973 21.3722 36.5973 22.5282V37.7555C36.5973 38.9101 35.6567 39.8501 34.502 39.8501H6.25331C5.09731 39.8501 4.15775 38.9098 4.15775 37.7555V22.5282C4.15775 21.3722 5.09801 20.4329 6.25331 20.4329H8.10556V19.3765H4.60904C3.51968 19.3765 2.63379 20.262 2.63379 21.3507V40.8283H14.0284L14.5845 42.1308Z" fill="#0082FF"/>
</svg>
