<svg width="54" height="44" viewBox="0 0 54 44" fill="none" xmlns="http://www.w3.org/2000/svg">
<path d="M51.8015 10.2306C51.052 9.59138 50.2617 9.0068 49.457 8.49128C46.2943 6.4632 42.8981 5.43896 39.3442 5.43896C35.7969 5.43896 32.3936 6.4633 29.2381 8.49128C28.4339 9.0068 27.6432 9.59137 26.8869 10.2306C26.3642 10.6704 25.842 11.1451 25.3398 11.654C25.8419 12.1628 26.3642 12.6438 26.8869 13.0839C27.6432 13.7232 28.434 14.3078 29.2381 14.8165C29.2588 14.8304 29.2727 14.8439 29.2933 14.8578C32.4348 16.858 35.8176 17.8751 39.3442 17.8751C42.878 17.8751 46.2603 16.8575 49.4024 14.8568C49.4163 14.8429 49.4369 14.8294 49.4575 14.8155C50.2617 14.3067 51.0525 13.7226 51.8021 13.0829C52.3248 12.6432 52.847 12.1617 53.3558 11.653C52.8465 11.1447 52.331 10.6704 51.8016 10.2306H51.8015ZM39.3445 15.9574C36.9727 15.9574 35.0478 14.0258 35.0478 11.6538C35.0478 9.28201 36.9727 7.35705 39.3445 7.35705C41.7164 7.35705 43.6481 9.28201 43.6481 11.6538C43.6481 14.0252 41.7165 15.9574 39.3445 15.9574Z" fill="#0082FF"/>
<path d="M27.4627 6.57823C28.0315 6.1802 28.618 5.80903 29.2097 5.4743C32.3719 3.66732 35.7829 2.75087 39.3474 2.75087C42.9119 2.75087 46.3229 3.66729 49.4881 5.47565C50.0774 5.80943 50.6644 6.18059 51.2322 6.57815C51.3516 6.66207 51.4892 6.70235 51.6254 6.70235C51.8422 6.70235 52.0556 6.6002 52.1894 6.40934C52.4071 6.09811 52.3318 5.6694 52.0201 5.45168C51.4173 5.02919 50.7929 4.635 50.1676 4.2806C46.794 2.35331 43.1541 1.37598 39.3474 1.37598C35.5407 1.37598 31.9004 2.3533 28.5302 4.27913C27.9029 4.634 27.2786 5.02819 26.6743 5.45116C26.3626 5.66887 26.2878 6.09759 26.5051 6.40883C26.7228 6.72006 27.1529 6.79534 27.4627 6.57811L27.4627 6.57823Z" fill="#0082FF"/>
<path d="M3.43768 40.5626H8.93769C9.3175 40.5626 9.62538 40.2548 9.62538 39.875V22.4055C9.62538 22.0256 9.31798 21.7178 8.93769 21.7178H3.43768C3.05787 21.7178 2.75 22.0256 2.75 22.4055L2.75048 39.8762C2.75048 40.2555 3.05787 40.5634 3.43768 40.5634V40.5626Z" fill="#0082FF"/>
<path d="M12.3745 39.8752C12.3745 40.255 12.6819 40.5629 13.0622 40.5629H18.5622C18.942 40.5629 19.2499 40.255 19.2499 39.8752L19.2494 17.8757C19.2494 17.4959 18.942 17.188 18.5617 17.188H13.0617C12.6819 17.188 12.374 17.4959 12.374 17.8757L12.3745 39.8752Z" fill="#0082FF"/>
<path d="M21.3125 22.0002V39.8748C21.3125 40.2527 21.6218 40.5625 22.0002 40.5625H27.5002C27.8781 40.5625 28.1879 40.2532 28.1879 39.8748L28.1874 22.0002C28.1874 21.6223 27.8781 21.3125 27.4997 21.3125H21.9997C21.6218 21.3125 21.3125 21.6223 21.3125 22.0002Z" fill="#0082FF"/>
<path d="M33.687 42.6245H0.687681C0.30787 42.6245 0 42.9324 0 43.3122C0 43.692 0.307391 43.9999 0.687681 43.9999H33.687C34.0668 43.9999 34.3747 43.692 34.3747 43.3122C34.3742 42.9324 34.0668 42.6245 33.687 42.6245Z" fill="#0082FF"/>
<path d="M38.4991 26.1246C38.4991 25.7448 38.1917 25.4369 37.8115 25.4369H37.1238V24.7492C37.1238 24.3694 36.8164 24.0615 36.4361 24.0615C36.0563 24.0615 35.7484 24.3694 35.7484 24.7492V25.4369H35.0607C34.6809 25.4369 34.373 25.7448 34.373 26.1246C34.373 26.5044 34.6804 26.8123 35.0607 26.8123H35.7484V27.4999C35.7484 27.8797 36.0558 28.1876 36.4361 28.1876C36.8159 28.1876 37.1238 27.8797 37.1238 27.4999V26.8123H37.8115C38.1917 26.8118 38.4991 26.5039 38.4991 26.1246Z" fill="#0082FF"/>
<path d="M50.1865 36.4374H49.4988V35.7497C49.4988 35.3699 49.1914 35.062 48.8111 35.062C48.4313 35.062 48.1234 35.3699 48.1234 35.7497V36.4374H47.4357C47.0559 36.4374 46.748 36.7452 46.748 37.1251C46.748 37.5049 47.0554 37.8127 47.4357 37.8127H48.1234V38.5004C48.1234 38.8802 48.4308 39.1881 48.8111 39.1881C49.1909 39.1881 49.4988 38.8802 49.4988 38.5004V37.8127H50.1865C50.5663 37.8127 50.8741 37.5049 50.8741 37.1251C50.8741 36.7448 50.5663 36.4374 50.1865 36.4374Z" fill="#0082FF"/>
<path d="M18.5627 6.18872H19.2504V6.8764C19.2504 7.25621 19.5578 7.56408 19.938 7.56408C20.3179 7.56408 20.6257 7.25621 20.6257 6.8764V6.18872H21.3134C21.6932 6.18872 22.0011 5.88085 22.0011 5.50104C22.0011 5.12122 21.6937 4.81335 21.3134 4.81335H20.6257V4.12567C20.6257 3.74586 20.3183 3.43799 19.938 3.43799C19.5582 3.43799 19.2504 3.74586 19.2504 4.12567V4.81335H18.5627C18.1829 4.81335 17.875 5.12122 17.875 5.50104C17.8755 5.88085 18.1829 6.18872 18.5627 6.18872Z" fill="#0082FF"/>
<path d="M4.12518 2.75073H4.81286V3.43841C4.81286 3.81822 5.12026 4.12609 5.50055 4.12609C5.88036 4.12609 6.18823 3.81822 6.18823 3.43841V2.75073H6.87591C7.25572 2.75073 7.56359 2.44286 7.56359 2.06305C7.56359 1.68323 7.2562 1.37536 6.87591 1.37536H6.18823V0.687682C6.18823 0.307871 5.88084 0 5.50055 0C5.12073 0 4.81286 0.307871 4.81286 0.687682V1.37536H4.12518C3.74537 1.37536 3.4375 1.68323 3.4375 2.06305C3.4375 2.44286 3.74489 2.75073 4.12518 2.75073Z" fill="#0082FF"/>
<path d="M43.3124 34.3752C43.3124 35.8939 42.0809 37.1249 40.5622 37.1249C39.0435 37.1249 37.8125 35.8939 37.8125 34.3752C37.8125 32.8565 39.0435 31.625 40.5622 31.625C42.0809 31.625 43.3124 32.8565 43.3124 34.3752Z" fill="#0082FF"/>
<path d="M12.3759 12.3757C12.3759 13.8944 11.1444 15.1254 9.62567 15.1254C8.10694 15.1254 6.87598 13.8944 6.87598 12.3757C6.87598 10.8569 8.10694 9.62549 9.62567 9.62549C11.1444 9.62549 12.3759 10.8569 12.3759 12.3757Z" fill="#0082FF"/>
</svg>
