<svg width="44" height="45" viewBox="0 0 44 45" fill="none" xmlns="http://www.w3.org/2000/svg">
<path d="M29.0407 2.02302C29.1229 1.6959 29.4153 1.46701 29.7529 1.46701H30.396C30.7333 1.46701 31.026 1.6959 31.1076 2.02302L31.563 3.84559L32.9862 3.48998L32.5307 1.66741C32.2857 0.685706 31.4076 0 30.3954 0H29.7522C28.7408 0 27.8629 0.685681 27.6169 1.6664L27.1621 3.48931L28.5852 3.84492L29.0407 2.02302Z" fill="#0082FF"/>
<path d="M41.6184 3.17529L40.5312 4.15959C43.2144 7.1243 43.2144 11.947 40.5312 14.9113L41.6184 15.8956C44.7937 12.3889 44.7937 6.68212 41.6184 3.17563V3.17529Z" fill="#0082FF"/>
<path d="M39.4001 5.39258L38.3496 6.41653C40.0272 8.13599 40.0272 10.9341 38.3496 12.6534L39.4001 13.6774C41.6284 11.3941 41.6284 7.67687 39.4001 5.39258Z" fill="#0082FF"/>
<path d="M19.6132 14.9113C16.93 11.9466 16.93 7.12389 19.6132 4.15959L18.526 3.17529C15.3507 6.68196 15.3507 12.3887 18.526 15.8952L19.6132 14.9113Z" fill="#0082FF"/>
<path d="M20.7454 13.6779L21.7959 12.6539C20.1183 10.9345 20.1183 8.1364 21.7959 6.41702L20.7454 5.39307C18.5171 7.67635 18.5171 11.3936 20.7454 13.6779Z" fill="#0082FF"/>
<path d="M30.073 35.9407C29.2626 35.9407 28.606 36.5972 28.606 37.4077V35.9407C28.606 35.1302 27.9495 34.4737 27.1391 34.4737C26.3286 34.4737 25.6721 35.1302 25.6721 35.9407V31.5397C25.6721 30.7293 25.0155 30.0728 24.2051 30.0728C23.3947 30.0728 22.7381 30.7293 22.7381 31.5397V34.4737L20.6153 35.5349C20.1182 35.7838 19.8042 36.292 19.8042 36.8474V41.0751H0C0 41.8842 0.657851 42.5421 1.46698 42.5421H20.1135C20.6797 43.8359 21.9685 44.7426 23.4716 44.7426H27.8725C29.8978 44.7426 31.5399 43.1004 31.5399 41.0751V37.4077C31.5399 36.5972 30.8834 35.9407 30.0729 35.9407H30.073Z" fill="#0082FF"/>
<path d="M35.2077 13.3286V7.33532C35.2077 5.71737 33.8917 4.40137 32.2738 4.40137H27.8729C26.2549 4.40137 24.9389 5.71737 24.9389 7.33532V13.3286C24.9389 14.329 24.6809 15.2884 24.2031 16.1372H35.944C35.4656 15.2884 35.2075 14.329 35.2075 13.3286H35.2077ZM27.8729 14.6702H26.4059V13.2032H27.8729V14.6702ZM30.8068 14.6702H29.3398V13.2032H30.8068V14.6702ZM33.7408 14.6702H32.2738V13.2032H33.7408V14.6702Z" fill="#0082FF"/>
<path d="M22.004 16.1366H20.4454L19.0737 17.3777L19.0701 20.5376H13.2022V10.2687H14.7205C14.6898 9.78018 14.6898 9.2903 14.7205 8.80176H2.93359V22.0045H26.4052V20.5376H22.0043C21.1952 20.5376 20.5373 19.8797 20.5373 19.0706V17.6036C20.5373 16.7945 21.1952 16.1366 22.0043 16.1366H22.004ZM5.13381 11.0022H11.0017V13.9362H5.13381V11.0022ZM4.40032 16.1366H7.33427V17.6036H4.40032V16.1366ZM11.7352 20.5376H4.40032V19.0706H11.7352V20.5376ZM11.7352 17.6036H8.80125V16.1366H11.7352V17.6036Z" fill="#0082FF"/>
<path d="M22.0039 17.604H38.1415V19.071H22.0039V17.604Z" fill="#0082FF"/>
<path d="M30.0724 22.0046C31.0273 22.0046 31.8341 21.3893 32.138 20.5376H28.0078C28.3107 21.3893 29.1175 22.0046 30.0724 22.0046Z" fill="#0082FF"/>
<path d="M29.3393 23.3984C28.7945 23.287 28.3006 23.0447 27.8724 22.7205V23.4724H1.46682V7.33563H14.9085C15.0054 6.83823 15.1367 6.3484 15.3001 5.86865H1.46697C0.65785 5.86865 0 6.5265 0 7.33563V24.9393H29.3395L29.3393 23.3984Z" fill="#0082FF"/>
<path d="M18.3372 36.8479C18.3372 35.7299 18.9584 34.7243 19.9581 34.2243L21.2712 33.5675V31.5402H19.8042V28.6062H22.7381V29.0139C23.1717 28.7618 23.6681 28.6062 24.2051 28.6062C25.8231 28.6062 27.1391 29.9222 27.1391 31.5402V33.0072C28.0222 33.0072 28.8041 33.4083 29.3395 34.0298V26.4058H0V39.6085H18.3372V36.8479ZM8.06837 28.6063H11.0023V31.5403H8.06837V28.6063ZM5.13442 37.4082H2.20046V34.4742H5.13442V37.4082ZM5.13442 31.5403H2.20046V28.6063H5.13442V31.5403ZM16.8702 37.4082H8.06837V34.4742H16.8702V37.4082ZM16.8702 31.5403H13.9363V28.6063H16.8702V31.5403Z" fill="#0082FF"/>
</svg>
