<svg width="40" height="40" viewBox="0 0 40 40" fill="none" xmlns="http://www.w3.org/2000/svg">
<path d="M20 0C8.95408 0 0 8.95408 0 20C0 31.0451 8.95408 40 20 40C31.0451 40 40 31.0451 40 20C40 8.95408 31.0451 0 20 0ZM30.6131 26.8172C28.2872 30.4052 24.3498 32.548 20.0791 32.548C13.3846 32.548 7.89881 27.2799 7.54932 20.6722L6.17678 22.2898C5.94095 22.5678 5.6058 22.7103 5.26828 22.7103C4.99624 22.7103 4.72253 22.6183 4.49866 22.4283C3.99709 22.0021 3.93531 21.2511 4.36048 20.7502L7.84823 16.6371C8.06247 16.3846 8.37239 16.2322 8.70291 16.2175C9.04039 16.2033 9.35561 16.3265 9.59143 16.5583L13.3868 20.2958C13.8554 20.7572 13.8611 21.5112 13.3997 21.9793C12.9377 22.4479 12.184 22.4536 11.7163 21.9922L9.92292 20.2261C10.0448 25.7273 14.5489 30.1665 20.0794 30.1665C23.5402 30.1665 26.731 28.4303 28.6159 25.5229C28.9737 24.9695 29.7121 24.8144 30.2621 25.1715C30.8142 25.5299 30.9713 26.267 30.6135 26.8177L30.6131 26.8172ZM32.6802 21.9892C32.4932 22.2629 32.2015 22.4473 31.875 22.4957C31.8156 22.5054 31.7561 22.509 31.6963 22.509C31.4286 22.509 31.1678 22.419 30.9542 22.2496L26.7872 18.9296C26.2731 18.5201 26.1883 17.7707 26.5986 17.2568C27.0071 16.743 27.7582 16.6579 28.272 17.0672L30.1302 18.5486C29.4237 13.6287 25.1916 9.8318 20.08 9.8318C16.9674 9.8318 14.0665 11.2298 12.1237 13.6676C11.7142 14.1818 10.9655 14.2665 10.4503 13.8563C9.93641 13.4467 9.85171 12.6973 10.2616 12.1835C12.6591 9.17642 16.2379 7.45117 20.0796 7.45117C26.3392 7.45117 31.5397 12.0573 32.4767 18.0575L33.7482 16.19C34.1169 15.6466 34.8587 15.5061 35.4034 15.8761C35.9469 16.2462 36.0877 16.9866 35.7163 17.5303L32.6802 21.9892Z" fill="#0082FF"/>
</svg>
