<svg width="42" height="42" viewBox="0 0 42 42" fill="none" xmlns="http://www.w3.org/2000/svg">
<path d="M6.68944 12.8066C3.95931 12.8066 1.73828 15.0297 1.73828 17.7622C1.73828 20.4947 3.95924 22.7177 6.68944 22.7177C9.41927 22.7177 11.6406 20.4946 11.6406 17.7622C11.6406 15.0293 9.41965 12.8066 6.68944 12.8066Z" fill="#0082FF"/>
<path d="M7.31102 23.7529H6.06678C2.72143 23.7529 0 26.4743 0 29.8194V37.3329H2.71993V32.5727C2.71993 32.3149 2.92882 32.106 3.18663 32.106C3.44444 32.106 3.65333 32.3149 3.65333 32.5727V37.3329H11.8463V28.4664C11.8463 28.2086 12.0552 27.9997 12.313 27.9997H13.0993C12.315 25.5075 9.96743 23.7532 7.3111 23.7532L7.31102 23.7529Z" fill="#0082FF"/>
<path d="M35.3125 12.7808C32.5824 12.7808 30.3613 15.0038 30.3613 17.7363C30.3613 20.4688 32.5823 22.6918 35.3125 22.6918C38.0427 22.6918 40.2637 20.4687 40.2637 17.7363C40.2634 15.0037 38.0424 12.7808 35.3125 12.7808Z" fill="#0082FF"/>
<path d="M35.9338 23.7278H34.6892C32.02 23.7278 29.6684 25.4932 28.8926 28.0001H29.6877C29.9455 28.0001 30.1544 28.209 30.1544 28.4668V37.3078H38.3474V32.5476C38.3474 32.2898 38.5563 32.0809 38.8141 32.0809C39.0719 32.0809 39.2808 32.2898 39.2808 32.5476V37.3078L42.0007 37.3075V29.794C42.0007 26.4489 39.2793 23.7275 35.9339 23.7275L35.9338 23.7278Z" fill="#0082FF"/>
<path d="M21 12.7808C18.2699 12.7808 16.0488 15.0038 16.0488 17.7363C16.0488 20.4688 18.2698 22.6918 21 22.6918C23.7302 22.6918 25.9512 20.4687 25.9512 17.7363C25.9512 15.0037 23.7302 12.7808 21 12.7808Z" fill="#0082FF"/>
<path d="M14.5822 27.9994H27.4198C26.644 25.4925 24.2924 23.7271 21.6232 23.7271H20.3787C17.7094 23.7273 15.3581 25.4925 14.582 27.9994H14.5822Z" fill="#0082FF"/>
<path d="M28.1543 0C25.4242 0 23.2031 2.22306 23.2031 4.95551C23.2031 7.68804 25.4241 9.91103 28.1543 9.91103C30.8841 9.91103 33.1055 7.68797 33.1055 4.95551C33.1055 2.22298 30.8845 0 28.1543 0Z" fill="#0082FF"/>
<path d="M26.8858 17.7364C26.8858 20.0189 25.5812 22.0017 23.6796 22.9787H32.6345C30.7329 22.0017 29.4283 20.0185 29.4283 17.7364C29.4283 15.4521 30.7387 13.4039 32.7555 12.4325C31.658 11.4812 30.2427 10.9463 28.7793 10.9463H27.5348C26.0714 10.9463 24.6564 11.4812 23.5586 12.4325C25.5751 13.4039 26.8858 15.4521 26.8858 17.7364Z" fill="#0082FF"/>
<path d="M13.8437 0C11.1136 0 8.89258 2.22306 8.89258 4.95551C8.89258 7.68804 11.1135 9.91103 13.8437 9.91103C16.5739 9.91103 18.7949 7.68797 18.7949 4.95551C18.7946 2.22298 16.5736 0 13.8437 0Z" fill="#0082FF"/>
<path d="M12.5729 17.7618C12.5729 20.0244 11.2908 21.9928 9.41556 22.9787H18.3217C16.4201 22.0017 15.1155 20.0185 15.1155 17.7364C15.1155 15.4521 16.426 13.4039 18.4427 12.4325C17.3453 11.4812 15.9299 10.9463 14.4665 10.9463H13.222C11.7489 10.9463 10.3267 11.4871 9.22656 12.4483C11.2551 13.4156 12.5731 15.4676 12.5731 17.7619L12.5729 17.7618Z" fill="#0082FF"/>
<path d="M12.7793 28.9331V41.9995H29.2199V28.9331H12.7793ZM16.1458 40.0435C16.1458 40.3013 15.9369 40.5102 15.6791 40.5102C15.4213 40.5102 15.2124 40.3013 15.2124 40.0435V37.369C15.2124 37.1112 15.4213 36.9023 15.6791 36.9023C15.9369 36.9023 16.1458 37.1112 16.1458 37.369V40.0435ZM16.0148 34.6019C15.8358 34.7874 15.5402 34.7924 15.3551 34.6134C15.1696 34.4344 15.1644 34.1391 15.3437 33.9536L18.2335 30.961C18.394 30.7949 18.6515 30.7711 18.8399 30.905L22.7252 33.6703L25.879 30.5578C26.0624 30.3768 26.358 30.3786 26.5391 30.5622C26.7202 30.7456 26.7181 31.0412 26.5347 31.2223L23.102 34.6102C22.9083 34.7716 22.7088 34.7877 22.5034 34.6582L18.626 31.8985L16.0148 34.6019ZM19.693 40.0435C19.693 40.3013 19.4842 40.5102 19.2263 40.5102C18.9685 40.5102 18.7596 40.3013 18.7596 40.0435V35.5236C18.7596 35.2658 18.9685 35.0569 19.2263 35.0569C19.4842 35.0569 19.693 35.2658 19.693 35.5236V40.0435ZM23.2403 40.0435C23.2403 40.3013 23.0314 40.5102 22.7736 40.5102C22.5158 40.5102 22.3069 40.3013 22.3069 40.0435V37.369C22.3069 37.1112 22.5158 36.9023 22.7736 36.9023C23.0314 36.9023 23.2403 37.1112 23.2403 37.369V40.0435ZM26.7875 40.0435C26.7875 40.3013 26.5786 40.5102 26.3208 40.5102C26.063 40.5102 25.8541 40.3013 25.8541 40.0435V34.6008C25.8541 34.343 26.063 34.1341 26.3208 34.1341C26.5786 34.1341 26.7875 34.343 26.7875 34.6008V40.0435Z" fill="#0082FF"/>
</svg>
