<svg width="44" height="44" viewBox="0 0 44 44" fill="none" xmlns="http://www.w3.org/2000/svg">
<path d="M39.3785 23.8084C39.4277 23.4713 39.4205 23.1342 39.3644 22.8181C37.2155 24.3914 34.5607 25.3255 31.6881 25.3255C26.8982 25.3255 22.7056 22.7269 20.4512 18.8643C16.6306 19.6579 13.8636 21.3224 13.0417 21.8633C10.7943 19.609 9.08056 19.2646 8.2518 19.2646C7.80934 19.2646 7.55661 19.3559 7.52838 19.37L6.8473 19.63L7.47946 20.0022C8.35746 20.508 8.44872 22.3057 8.39948 23.1555C4.9721 24.9673 3.46222 27.7697 3.08283 28.5771L0.266585 28.5768L0.196343 28.8299C-0.196878 30.2836 -0.000263001 31.6954 0.793397 33.0227C3.40613 37.4052 11.6228 39.5682 12.7891 39.8561C12.9506 40.2706 12.8521 42.0404 12.6417 43.5293L12.5925 43.9297H17.7474L17.902 43.8946C18.4498 43.635 19.3065 42.0336 19.7489 41.1417C20.5986 41.2822 21.5889 41.3594 22.6915 41.3594C25.7325 41.3594 28.9 40.7974 29.841 40.6218C29.9044 41.0784 29.7215 42.3004 29.3845 43.4804L29.265 43.9298H34.9608L35.031 43.8878C36.9344 42.9326 37.4681 38.0584 37.6086 36.0007C37.6227 35.7759 37.7281 35.5442 37.9106 35.3334C40.9867 31.7938 39.0833 26.7375 38.3671 25.1712C38.9081 25.0235 39.2734 24.5459 39.3788 23.8084L39.3785 23.8084ZM9.42456 30.1505C8.76449 30.0169 8.22356 29.4763 8.09719 28.8231C7.88646 27.6294 8.90496 26.6109 10.0918 26.8357C10.7519 26.9621 11.2928 27.503 11.4192 28.1631C11.644 29.3497 10.6114 30.3681 9.42456 30.1505Z" fill="#0082FF"/>
<path d="M31.6886 0C24.9044 0 19.377 5.52015 19.377 12.3116C19.377 19.0961 24.9043 24.6233 31.6886 24.6233C38.48 24.6233 44.0002 19.0962 44.0002 12.3116C44.0002 5.52024 38.4801 0 31.6886 0ZM38.2348 19.5648L37.5176 18.7101L36.98 19.1614L37.6988 20.0181C36.9905 20.5718 36.2077 21.032 35.3631 21.376L34.9781 20.3177L34.3183 20.5577L34.704 21.6178C33.8608 21.8919 32.967 22.0475 32.0417 22.0807V20.9594H31.3393V22.081C30.4136 22.0478 29.5196 21.8929 28.6764 21.6188L29.0627 20.5577L28.403 20.3177L28.0173 21.3772C27.1724 21.0336 26.3893 20.5734 25.6806 20.02L26.4007 19.162L25.8631 18.7107L25.1446 19.5668C24.4743 18.9615 23.8891 18.2676 23.4062 17.5002L24.3768 16.9399L24.0256 16.3317L23.0481 16.8959C22.6277 16.1069 22.3123 15.2541 22.1202 14.3558L23.2349 14.1592L23.1128 13.4679L22.0064 13.6629C21.9447 13.2201 21.902 12.7715 21.902 12.3122C21.902 11.8524 21.945 11.4037 22.0067 10.9609L23.1128 11.1559L23.2349 10.4646L22.1206 10.268C22.3126 9.36969 22.628 8.5169 23.0485 7.72789L24.0256 8.29211L24.3768 7.6839L23.4066 7.12361C23.8894 6.35588 24.4746 5.66229 25.1446 5.05705L25.8628 5.91278L26.4004 5.46146L25.6806 4.6038C26.3892 4.0504 27.1724 3.59026 28.0173 3.24659L28.4026 4.3055L29.0624 4.06556L28.6764 3.00439C29.5196 2.73064 30.4137 2.57539 31.3393 2.54257V3.66349H32.0417L32.0414 2.54257C32.9667 2.57572 33.8604 2.7313 34.7037 3.00537L34.3183 4.06487L34.9781 4.3048L35.3628 3.2469C36.2073 3.59056 36.9901 4.05074 37.6985 4.60445L36.98 5.46076L37.5176 5.91208L38.2345 5.0577C38.9044 5.66295 39.4893 6.3565 39.9718 7.12392L39.0038 7.68257L39.355 8.29078L40.3299 7.72819C40.75 8.51726 41.0655 9.36932 41.2571 10.2674L40.1457 10.4634L40.2678 11.1546L41.371 10.96C41.4327 11.4028 41.4754 11.8514 41.4754 12.311C41.4754 12.7701 41.4324 13.2185 41.371 13.6613L40.2675 13.4666L40.1454 14.1579L41.257 14.3538C41.0654 15.2519 40.7499 16.1043 40.3298 16.8931L39.3549 16.3301L39.0037 16.9384L39.972 17.4973C39.4895 18.266 38.9042 18.9596 38.2346 19.5648L38.2348 19.5648Z" fill="#0082FF"/>
<path d="M32.04 10.2605V6.29248H31.3375V10.2605C30.4668 10.401 29.7784 11.0893 29.6379 11.9601H25.6699V12.6625H29.6379C29.7994 13.6459 30.6561 14.4041 31.6887 14.4041C32.8405 14.4041 33.7815 13.4631 33.7815 12.3114C33.7815 11.2791 33.0229 10.4221 32.0398 10.2606L32.04 10.2605Z" fill="#0082FF"/>
</svg>
